<?xml version="1.0" encoding="utf-8"?>
<!-- Generator: Adobe Illustrator 23.0.0, SVG Export Plug-In . SVG Version: 6.00 Build 0)  -->
<svg version="1.1" id="Computer" xmlns="http://www.w3.org/2000/svg" xmlns:xlink="http://www.w3.org/1999/xlink" x="0px" y="0px"
	 viewBox="0 0 438.49 325.3" style="enable-background:new 0 0 438.49 325.3;" xml:space="preserve">
<style type="text/css">
	.st0{fill:url(#SVGID_1_);}
	.st1{fill:url(#SVGID_2_);}
	.st2{fill:url(#SVGID_3_);}
	.st3{opacity:0.6;fill:#020230;}
	.st4{fill:url(#SVGID_4_);}
	.st5{fill:url(#SVGID_5_);}
	.st6{fill:url(#SVGID_6_);}
	.st7{fill:url(#SVGID_7_);}
	.st8{fill:#FFFFFF;}
	.st9{opacity:0.4;}
	.st10{fill:#06033E;}
	.st11{fill:url(#SVGID_8_);}
	.st12{fill:url(#SVGID_9_);}
	.st13{opacity:0.4;fill:#06033E;}
	.st14{opacity:0.5;fill:#06033E;}
	.st15{fill:url(#SVGID_10_);}
	.st16{opacity:0.5;}
	.st17{fill:#E8975B;}
	.st18{fill:#F8359E;}
	.st19{fill:url(#SVGID_11_);}
	.st20{fill:url(#SVGID_12_);}
	.st21{fill:url(#SVGID_13_);}
	.st22{fill:url(#SVGID_14_);}
	.st23{fill:url(#SVGID_15_);}
	.st24{fill:url(#SVGID_16_);}
	.st25{fill:url(#SVGID_17_);}
	.st26{fill:#0C0A78;}
	.st27{fill:url(#SVGID_18_);}
	.st28{opacity:0.5;fill:#FFFFFF;}
</style>
<linearGradient id="SVGID_1_" gradientUnits="userSpaceOnUse" x1="405.874" y1="269.8804" x2="438.4853" y2="269.8804">
	<stop  offset="0" style="stop-color:#E39A65"/>
	<stop  offset="1" style="stop-color:#E95F8D"/>
</linearGradient>
<path class="st0" d="M422.18,279.47c-1.2,0-2.41-0.31-3.48-0.93l-11.74-6.78c-0.68-0.39-1.09-1.1-1.09-1.88
	c0-0.79,0.41-1.49,1.09-1.88l11.74-6.78c2.15-1.24,4.82-1.24,6.96,0L437.4,268c0.68,0.39,1.09,1.1,1.09,1.88
	c0,0.79-0.41,1.49-1.09,1.88l-11.74,6.78C424.59,279.16,423.38,279.47,422.18,279.47z M422.18,262.15c-0.88,0-1.76,0.23-2.55,0.68
	l-11.74,6.78c-0.14,0.08-0.16,0.2-0.16,0.27c0,0.07,0.02,0.19,0.16,0.27l11.74,6.78c0,0,0,0,0,0c1.57,0.91,3.53,0.91,5.1,0
	l11.74-6.78c0.14-0.08,0.16-0.2,0.16-0.27c0-0.07-0.02-0.19-0.16-0.27l-11.74-6.78C423.94,262.38,423.06,262.15,422.18,262.15z"/>
<linearGradient id="SVGID_2_" gradientUnits="userSpaceOnUse" x1="361.2226" y1="225.1872" x2="416.001" y2="225.1872">
	<stop  offset="0" style="stop-color:#E39A65"/>
	<stop  offset="1" style="stop-color:#E95F8D"/>
</linearGradient>
<path class="st1" d="M388.61,241.02c-1.96,0-3.91-0.5-5.66-1.51l-20.2-11.66c-0.96-0.55-1.54-1.55-1.54-2.66
	c0-1.11,0.57-2.1,1.54-2.66l20.2-11.66c3.49-2.01,7.82-2.02,11.31,0l20.2,11.66c0.96,0.55,1.54,1.55,1.54,2.66
	c0,1.11-0.57,2.1-1.53,2.66l-20.2,11.66C392.52,240.51,390.57,241.02,388.61,241.02z M383.89,237.9c2.92,1.68,6.54,1.68,9.45,0
	l20.2-11.66c0.54-0.32,0.6-0.84,0.6-1.05c0-0.21-0.06-0.73-0.6-1.05l-20.2-11.66c-2.92-1.68-6.54-1.68-9.45,0l-20.2,11.66
	c-0.54,0.32-0.6,0.84-0.6,1.05c0,0.21,0.06,0.73,0.6,1.05L383.89,237.9z"/>
<linearGradient id="SVGID_3_" gradientUnits="userSpaceOnUse" x1="0" y1="243.5396" x2="54.7783" y2="243.5396">
	<stop  offset="0" style="stop-color:#E39A65"/>
	<stop  offset="1" style="stop-color:#E95F8D"/>
</linearGradient>
<path class="st2" d="M27.39,259.37c-1.96,0-3.91-0.5-5.66-1.51L1.54,246.2C0.57,245.64,0,244.65,0,243.54c0-1.11,0.57-2.1,1.54-2.66
	l20.2-11.66c3.49-2.02,7.82-2.02,11.31,0l20.2,11.66c0.96,0.55,1.54,1.55,1.54,2.66c0,1.11-0.57,2.1-1.54,2.66l-20.2,11.66
	C31.3,258.87,29.34,259.37,27.39,259.37z M27.39,229.57c-1.63,0-3.27,0.42-4.73,1.26l-20.2,11.66c-0.54,0.32-0.6,0.84-0.6,1.05
	c0,0.21,0.06,0.73,0.6,1.05l20.2,11.66l0,0c2.92,1.68,6.54,1.68,9.45,0l20.2-11.66c0.55-0.32,0.6-0.84,0.6-1.05
	c0-0.21-0.06-0.73-0.6-1.05l-20.2-11.66C30.66,229.99,29.02,229.57,27.39,229.57z"/>
<g>
	<path class="st3" d="M231.94,310.24L87.5,226.86c-2.11-1.22-1.84-3.34,0.59-4.74l92.7-53.52c2.43-1.4,6.11-1.56,8.21-0.34
		l144.43,83.39c2.11,1.22,1.84,3.34-0.59,4.74l-92.7,53.52C237.72,311.31,234.04,311.46,231.94,310.24z"/>
	<linearGradient id="SVGID_4_" gradientUnits="userSpaceOnUse" x1="63.7744" y1="240.0258" x2="356.1328" y2="240.0258">
		<stop  offset="0" style="stop-color:#E39A65"/>
		<stop  offset="1" style="stop-color:#E95F8D"/>
	</linearGradient>
	<path class="st4" d="M235.24,325.3c-1.69,0-3.31-0.35-4.54-1.07h0L65.86,229.07c-1.35-0.78-2.09-1.9-2.09-3.16
		c0-1.45,1.01-2.86,2.76-3.87l112.36-65.83c3.08-1.78,7.61-1.95,10.31-0.39l164.84,95.17c1.35,0.78,2.09,1.9,2.09,3.16
		c0,1.45-1.01,2.85-2.76,3.87l-112.36,65.83C239.34,324.81,237.24,325.3,235.24,325.3z M184.68,156.62c-1.69,0-3.48,0.41-4.85,1.2
		L67.47,223.65c-1.15,0.67-1.83,1.51-1.83,2.26c0,0.72,0.63,1.24,1.16,1.54l164.84,95.17c0,0,0,0,0,0c2.1,1.22,5.97,1.04,8.44-0.39
		l112.36-65.83c1.15-0.67,1.83-1.51,1.83-2.26c0-0.72-0.63-1.24-1.16-1.54l-164.84-95.17C187.34,156.89,186.05,156.62,184.68,156.62
		z"/>
	<radialGradient id="SVGID_5_" cx="225.2609" cy="23.5714" r="223.2961" gradientUnits="userSpaceOnUse">
		<stop  offset="0" style="stop-color:#E39A65"/>
		<stop  offset="0.4742" style="stop-color:#A92FFB"/>
		<stop  offset="0.5947" style="stop-color:#891CFB"/>
		<stop  offset="0.7421" style="stop-color:#6507FA"/>
		<stop  offset="0.8016" style="stop-color:#0D0C6F"/>
	</radialGradient>
	<path class="st5" d="M371.8,111.85L227.94,28.79c-0.99-0.57-2.02-0.69-2.94-0.42v0l0,0c0,0-0.01,0-0.01,0l-2.66,0.93l0.94,0.22
		c-0.38,0.45-0.68,1-0.88,1.65L189.85,136.8c-0.81,2.62,0.37,5.8,2.64,7.11l143.86,83.06c0.35,0.2,0.7,0.34,1.06,0.43l-0.36,0.78
		l2.54-0.89l-0.01,0c1.04-0.41,1.9-1.35,2.31-2.69l32.53-105.63C375.25,116.33,374.07,113.15,371.8,111.85z"/>
	<radialGradient id="SVGID_6_" cx="88.6882" cy="202.8944" r="244.1723" gradientUnits="userSpaceOnUse">
		<stop  offset="0" style="stop-color:#E39A65"/>
		<stop  offset="0.4742" style="stop-color:#A92FFB"/>
		<stop  offset="0.5679" style="stop-color:#891CFB"/>
		<stop  offset="0.6825" style="stop-color:#6507FA"/>
		<stop  offset="0.7381" style="stop-color:#0D0C6F"/>
	</radialGradient>
	<path class="st6" d="M331.2,230.91l0.05,0.06l-142.1-82.04c-2.09-1.21-5.74-1.06-8.16,0.34l-91.81,53.01l-3.06-1.17l0.86,4.29l0,0
		c0.11,0.65,0.57,1.25,1.38,1.72l143.41,82.8c2.09,1.21,5.74,1.06,8.16-0.34l92.04-53.14c1.14-0.66,1.79-1.47,1.95-2.27l0.01,0.01
		l0.88-4.18L331.2,230.91z"/>
	<radialGradient id="SVGID_7_" cx="111.1455" cy="153.8849" r="218.96" gradientUnits="userSpaceOnUse">
		<stop  offset="0" style="stop-color:#E39A65"/>
		<stop  offset="0.4742" style="stop-color:#A92FFB"/>
		<stop  offset="0.5875" style="stop-color:#891CFB"/>
		<stop  offset="0.7262" style="stop-color:#6507FA"/>
		<stop  offset="1" style="stop-color:#3919BB"/>
	</radialGradient>
	<path class="st7" d="M231.94,286.13L87.5,202.75c-2.11-1.22-1.84-3.34,0.59-4.74l92.7-53.52c2.43-1.4,6.11-1.56,8.21-0.34
		l144.43,83.39c2.11,1.22,1.84,3.34-0.59,4.74l-92.7,53.52C237.72,287.2,234.04,287.35,231.94,286.13z"/>
	<path class="st8" d="M332.85,231.15l-92.7,53.52c-2.43,1.4-6.11,1.56-8.21,0.34L87.5,201.62c-0.72-0.41-1.14-0.94-1.31-1.5
		c-0.28,0.97,0.13,1.94,1.31,2.62l144.43,83.39c2.11,1.22,5.78,1.06,8.21-0.34l92.7-53.52c1.6-0.93,2.24-2.16,1.9-3.24
		C334.53,229.78,333.91,230.54,332.85,231.15z"/>
	<g class="st9">
		<path class="st10" d="M156.4,189.22l-4.88-2.82c-0.39-0.23-0.34-0.62,0.11-0.88l5.76-3.32c0.45-0.26,1.14-0.29,1.53-0.06
			l4.88,2.82c0.39,0.23,0.34,0.62-0.11,0.88l-5.76,3.32C157.47,189.41,156.79,189.44,156.4,189.22z"/>
		<path class="st10" d="M163.93,193.56l-4.88-2.82c-0.39-0.23-0.34-0.62,0.11-0.88l5.76-3.32c0.45-0.26,1.14-0.29,1.53-0.06
			l4.88,2.82c0.39,0.23,0.34,0.62-0.11,0.88l-5.76,3.32C165,193.76,164.32,193.79,163.93,193.56z"/>
		<path class="st10" d="M171.46,197.91l-4.88-2.82c-0.39-0.23-0.34-0.62,0.11-0.88l5.76-3.32c0.45-0.26,1.14-0.29,1.53-0.06
			l4.88,2.82c0.39,0.23,0.34,0.62-0.11,0.88l-5.76,3.32C172.53,198.11,171.85,198.14,171.46,197.91z"/>
		<path class="st10" d="M181.87,194.32L177,191.5c-0.39-0.23-0.34-0.62,0.11-0.88l4.83-2.79c0.45-0.26,1.14-0.29,1.53-0.06
			l4.88,2.82c0.39,0.23,0.34,0.62-0.11,0.88l-4.83,2.79C182.95,194.52,182.26,194.55,181.87,194.32z"/>
		<path class="st10" d="M189.4,198.67l-4.88-2.82c-0.39-0.23-0.34-0.62,0.11-0.88l4.83-2.79c0.45-0.26,1.14-0.29,1.53-0.06
			l4.88,2.82c0.39,0.23,0.34,0.62-0.11,0.88l-4.83,2.79C190.48,198.87,189.79,198.89,189.4,198.67z"/>
		<path class="st10" d="M196.93,203.02l-4.88-2.82c-0.39-0.23-0.34-0.62,0.11-0.88l4.83-2.79c0.45-0.26,1.14-0.29,1.53-0.06
			l4.88,2.82c0.39,0.23,0.34,0.62-0.11,0.88l-4.83,2.79C198.01,203.21,197.32,203.24,196.93,203.02z"/>
		<path class="st10" d="M204.46,207.36l-4.88-2.82c-0.39-0.23-0.34-0.62,0.11-0.88l4.83-2.79c0.45-0.26,1.14-0.29,1.53-0.06
			l4.88,2.82c0.39,0.23,0.34,0.62-0.11,0.88l-4.83,2.79C205.54,207.56,204.85,207.59,204.46,207.36z"/>
		<path class="st10" d="M211.99,211.71l-4.88-2.82c-0.39-0.23-0.34-0.62,0.11-0.88l4.83-2.79c0.45-0.26,1.14-0.29,1.53-0.06
			l4.88,2.82c0.39,0.23,0.34,0.62-0.11,0.88l-4.83,2.79C213.07,211.91,212.38,211.94,211.99,211.71z"/>
		<path class="st10" d="M219.52,216.06l-4.88-2.82c-0.39-0.23-0.34-0.62,0.11-0.88l4.83-2.79c0.45-0.26,1.14-0.29,1.53-0.06
			l4.88,2.82c0.39,0.23,0.34,0.62-0.11,0.88l-4.83,2.79C220.6,216.26,219.91,216.28,219.52,216.06z"/>
		<path class="st10" d="M227.05,220.41l-4.88-2.82c-0.39-0.23-0.34-0.62,0.11-0.88l4.83-2.79c0.45-0.26,1.14-0.29,1.53-0.06
			l4.88,2.82c0.39,0.23,0.34,0.62-0.11,0.88l-4.83,2.79C228.13,220.6,227.44,220.63,227.05,220.41z"/>
		<path class="st10" d="M234.58,224.75l-4.88-2.82c-0.39-0.23-0.34-0.62,0.11-0.88l4.83-2.79c0.45-0.26,1.14-0.29,1.53-0.06
			l4.88,2.82c0.39,0.23,0.34,0.62-0.11,0.88l-4.83,2.79C235.66,224.95,234.97,224.98,234.58,224.75z"/>
		<path class="st10" d="M242.11,229.1l-4.88-2.82c-0.39-0.23-0.34-0.62,0.11-0.88l4.83-2.79c0.45-0.26,1.14-0.29,1.53-0.06
			l4.88,2.82c0.39,0.23,0.34,0.62-0.11,0.88l-4.83,2.79C243.19,229.3,242.51,229.33,242.11,229.1z"/>
		<path class="st10" d="M249.64,233.45l-4.88-2.82c-0.39-0.23-0.34-0.62,0.11-0.88l4.83-2.79c0.45-0.26,1.14-0.29,1.53-0.06
			l4.88,2.82c0.39,0.23,0.34,0.62-0.11,0.88l-4.83,2.79C250.72,233.65,250.04,233.67,249.64,233.45z"/>
		<path class="st10" d="M192.97,192.26l-4.88-2.82c-0.39-0.23-0.34-0.62,0.11-0.88l4.83-2.79c0.45-0.26,1.14-0.29,1.53-0.06
			l4.88,2.82c0.39,0.23,0.34,0.62-0.11,0.88l-4.83,2.79C194.04,192.46,193.36,192.49,192.97,192.26z"/>
		<path class="st10" d="M185.32,187.85l-4.88-2.82c-0.39-0.23-0.34-0.62,0.11-0.88l4.83-2.79c0.45-0.26,1.14-0.29,1.53-0.06
			l4.88,2.82c0.39,0.23,0.34,0.62-0.11,0.88l-4.83,2.79C186.4,188.05,185.72,188.08,185.32,187.85z"/>
		<path class="st10" d="M177.67,183.43l-10.5-6.06c-0.39-0.23-0.34-0.62,0.11-0.88l4.83-2.79c0.45-0.26,1.14-0.29,1.53-0.06
			l10.5,6.06c0.39,0.23,0.34,0.62-0.11,0.88l-4.83,2.79C178.74,183.63,178.06,183.66,177.67,183.43z"/>
		<path class="st10" d="M183.02,178.05l-8.52-4.92c-0.39-0.23-0.34-0.62,0.11-0.88l4.83-2.79c0.45-0.26,1.14-0.29,1.53-0.06
			l8.52,4.92c0.39,0.23,0.34,0.62-0.11,0.88l-4.83,2.79C184.1,178.25,183.41,178.28,183.02,178.05z"/>
		<path class="st10" d="M200.5,196.61l-4.88-2.82c-0.39-0.23-0.34-0.62,0.11-0.88l4.83-2.79c0.45-0.26,1.14-0.29,1.53-0.06
			l4.88,2.82c0.39,0.23,0.34,0.62-0.11,0.88l-4.83,2.79C201.57,196.81,200.89,196.84,200.5,196.61z"/>
		<path class="st10" d="M208.03,200.96l-4.88-2.82c-0.39-0.23-0.34-0.62,0.11-0.88l4.83-2.79c0.45-0.26,1.14-0.29,1.53-0.06
			l4.88,2.82c0.39,0.23,0.34,0.62-0.11,0.88l-4.83,2.79C209.1,201.15,208.42,201.18,208.03,200.96z"/>
		<path class="st10" d="M215.56,205.3l-4.88-2.82c-0.39-0.23-0.34-0.62,0.11-0.88l4.83-2.79c0.45-0.26,1.14-0.29,1.53-0.06
			l4.88,2.82c0.39,0.23,0.34,0.62-0.11,0.88l-4.83,2.79C216.63,205.5,215.95,205.53,215.56,205.3z"/>
		<path class="st10" d="M223.09,209.65l-4.88-2.82c-0.39-0.23-0.34-0.62,0.11-0.88l4.83-2.79c0.45-0.26,1.14-0.29,1.53-0.06
			l4.88,2.82c0.39,0.23,0.34,0.62-0.11,0.88l-4.83,2.79C224.16,209.85,223.48,209.88,223.09,209.65z"/>
		<path class="st10" d="M230.62,214l-4.88-2.82c-0.39-0.23-0.34-0.62,0.11-0.88l4.83-2.79c0.45-0.26,1.14-0.29,1.53-0.06l4.88,2.82
			c0.39,0.23,0.34,0.62-0.11,0.88l-4.83,2.79C231.69,214.2,231.01,214.23,230.62,214z"/>
		<path class="st10" d="M238.15,218.35l-4.88-2.82c-0.39-0.23-0.34-0.62,0.11-0.88l4.83-2.79c0.45-0.26,1.14-0.29,1.53-0.06
			l4.88,2.82c0.39,0.23,0.34,0.62-0.11,0.88l-4.83,2.79C239.22,218.55,238.54,218.57,238.15,218.35z"/>
		<path class="st10" d="M245.68,222.7l-4.88-2.82c-0.39-0.23-0.34-0.62,0.11-0.88l4.83-2.79c0.45-0.26,1.14-0.29,1.53-0.06
			l4.88,2.82c0.39,0.23,0.34,0.62-0.11,0.88l-4.83,2.79C246.75,222.89,246.07,222.92,245.68,222.7z"/>
		<path class="st10" d="M253.21,227.04l-4.88-2.82c-0.39-0.23-0.34-0.62,0.11-0.88l4.83-2.79c0.45-0.26,1.14-0.29,1.53-0.06
			l4.88,2.82c0.39,0.23,0.34,0.62-0.11,0.88l-4.83,2.79C254.28,227.24,253.6,227.27,253.21,227.04z"/>
		<path class="st10" d="M260.74,231.39l-4.88-2.82c-0.39-0.23-0.34-0.62,0.11-0.88l4.83-2.79c0.45-0.26,1.14-0.29,1.53-0.06
			l4.88,2.82c0.39,0.23,0.34,0.62-0.11,0.88l-4.83,2.79C261.81,231.59,261.13,231.62,260.74,231.39z"/>
		<path class="st10" d="M274.13,239.12l-10.64-6.14c-0.39-0.23-0.34-0.62,0.11-0.88l4.83-2.79c0.45-0.26,1.14-0.29,1.53-0.06
			l10.64,6.14c0.39,0.23,0.34,0.62-0.11,0.88l-4.83,2.79C275.2,239.32,274.52,239.35,274.13,239.12z"/>
		<path class="st10" d="M288.79,230.66l-8.98-5.18c-0.39-0.23-0.34-0.62,0.11-0.88l4.83-2.79c0.45-0.26,1.14-0.29,1.53-0.06
			l8.98,5.18c0.39,0.23,0.34,0.62-0.11,0.88l-4.83,2.79C289.86,230.85,289.18,230.88,288.79,230.66z"/>
		<path class="st10" d="M213.68,195.76l-4.88-2.82c-0.39-0.23-0.34-0.62,0.11-0.88l4.83-2.79c0.45-0.26,1.14-0.29,1.53-0.06
			l4.88,2.82c0.39,0.23,0.34,0.62-0.11,0.88l-4.83,2.79C214.76,195.96,214.08,195.98,213.68,195.76z"/>
		<path class="st10" d="M205.97,191.3l-4.88-2.82c-0.39-0.23-0.34-0.62,0.11-0.88l4.83-2.79c0.45-0.26,1.14-0.29,1.53-0.06
			l4.88,2.82c0.39,0.23,0.34,0.62-0.11,0.88l-4.83,2.79C207.04,191.5,206.36,191.53,205.97,191.3z"/>
		<path class="st10" d="M198.25,186.85l-4.88-2.82c-0.39-0.23-0.34-0.62,0.11-0.88l4.83-2.79c0.45-0.26,1.14-0.29,1.53-0.06
			l4.88,2.82c0.39,0.23,0.34,0.62-0.11,0.88l-4.83,2.79C199.32,187.04,198.64,187.07,198.25,186.85z"/>
		<path class="st10" d="M190.53,182.39l-4.88-2.82c-0.39-0.23-0.34-0.62,0.11-0.88l4.83-2.79c0.45-0.26,1.14-0.29,1.53-0.06
			l4.88,2.82c0.39,0.23,0.34,0.62-0.11,0.88l-4.83,2.79C191.61,182.59,190.92,182.62,190.53,182.39z"/>
		<path class="st10" d="M221.21,200.11l-4.88-2.82c-0.39-0.23-0.34-0.62,0.11-0.88l4.83-2.79c0.45-0.26,1.14-0.29,1.53-0.06
			l4.88,2.82c0.39,0.23,0.34,0.62-0.11,0.88l-4.83,2.79C222.29,200.3,221.61,200.33,221.21,200.11z"/>
		<path class="st10" d="M228.74,204.45l-4.88-2.82c-0.39-0.23-0.34-0.62,0.11-0.88l4.83-2.79c0.45-0.26,1.14-0.29,1.53-0.06
			l4.88,2.82c0.39,0.23,0.34,0.62-0.11,0.88l-4.83,2.79C229.82,204.65,229.14,204.68,228.74,204.45z"/>
		<path class="st10" d="M236.28,208.8l-4.88-2.82c-0.39-0.23-0.34-0.62,0.11-0.88l4.83-2.79c0.45-0.26,1.14-0.29,1.53-0.06
			l4.88,2.82c0.39,0.23,0.34,0.62-0.11,0.88l-4.83,2.79C237.35,209,236.67,209.03,236.28,208.8z"/>
		<path class="st10" d="M243.81,213.15l-4.88-2.82c-0.39-0.23-0.34-0.62,0.11-0.88l4.83-2.79c0.45-0.26,1.14-0.29,1.53-0.06
			l4.88,2.82c0.39,0.23,0.34,0.62-0.11,0.88l-4.83,2.79C244.88,213.35,244.2,213.38,243.81,213.15z"/>
		<path class="st10" d="M251.34,217.5l-4.88-2.82c-0.39-0.23-0.34-0.62,0.11-0.88l4.83-2.79c0.45-0.26,1.14-0.29,1.53-0.06
			l4.88,2.82c0.39,0.23,0.34,0.62-0.11,0.88l-4.83,2.79C252.41,217.69,251.73,217.72,251.34,217.5z"/>
		<path class="st10" d="M258.87,221.84l-4.88-2.82c-0.39-0.23-0.34-0.62,0.11-0.88l4.83-2.79c0.45-0.26,1.14-0.29,1.53-0.06
			l4.88,2.82c0.39,0.23,0.34,0.62-0.11,0.88l-4.83,2.79C259.94,222.04,259.26,222.07,258.87,221.84z"/>
		<path class="st10" d="M266.4,226.19l-4.88-2.82c-0.39-0.23-0.34-0.62,0.11-0.88l4.83-2.79c0.45-0.26,1.14-0.29,1.53-0.06
			l4.88,2.82c0.39,0.23,0.34,0.62-0.11,0.88l-4.83,2.79C267.47,226.39,266.79,226.42,266.4,226.19z"/>
		<path class="st10" d="M273.93,230.54l-4.88-2.82c-0.39-0.23-0.34-0.62,0.11-0.88l4.83-2.79c0.45-0.26,1.14-0.29,1.53-0.06
			l4.88,2.82c0.39,0.23,0.34,0.62-0.11,0.88l-4.83,2.79C275,230.74,274.32,230.77,273.93,230.54z"/>
		<path class="st10" d="M281.46,234.89l-4.88-2.82c-0.39-0.23-0.34-0.62,0.11-0.88l4.83-2.79c0.45-0.26,1.14-0.29,1.53-0.06
			l4.88,2.82c0.39,0.23,0.34,0.62-0.11,0.88l-4.83,2.79C282.53,235.08,281.85,235.11,281.46,234.89z"/>
		<path class="st10" d="M209.72,185.01l-4.88-2.82c-0.39-0.23-0.34-0.62,0.11-0.88l4.83-2.79c0.45-0.26,1.14-0.29,1.53-0.06
			l4.88,2.82c0.39,0.23,0.34,0.62-0.11,0.88l-4.83,2.79C210.79,185.2,210.11,185.23,209.72,185.01z"/>
		<path class="st10" d="M202.23,180.68l-4.88-2.82c-0.39-0.23-0.34-0.62,0.11-0.88l4.83-2.79c0.45-0.26,1.14-0.29,1.53-0.06
			l4.88,2.82c0.39,0.23,0.34,0.62-0.11,0.88l-4.83,2.79C203.3,180.88,202.62,180.91,202.23,180.68z"/>
		<path class="st10" d="M194.73,176.35l-4.88-2.82c-0.39-0.23-0.34-0.62,0.11-0.88l4.83-2.79c0.45-0.26,1.14-0.29,1.53-0.06
			l4.88,2.82c0.39,0.23,0.34,0.62-0.11,0.88l-4.83,2.79C195.81,176.55,195.13,176.58,194.73,176.35z"/>
		<path class="st10" d="M187.24,172.03l-4.88-2.82c-0.39-0.23-0.34-0.62,0.11-0.88l4.83-2.79c0.45-0.26,1.14-0.29,1.53-0.06
			l4.88,2.82c0.39,0.23,0.34,0.62-0.11,0.88l-4.83,2.79C188.32,172.23,187.63,172.25,187.24,172.03z"/>
		<path class="st10" d="M194.95,167.58l-4.88-2.82c-0.39-0.23-0.34-0.62,0.11-0.88l1.6-0.92c0.45-0.26,1.14-0.29,1.53-0.06
			l4.88,2.82c0.39,0.23,0.34,0.62-0.11,0.88l-1.6,0.92C196.02,167.78,195.34,167.8,194.95,167.58z"/>
		<path class="st10" d="M204.72,173.22l-4.88-2.82c-0.39-0.23-0.34-0.62,0.11-0.88l1.6-0.92c0.45-0.26,1.14-0.29,1.53-0.06
			l4.88,2.82c0.39,0.23,0.34,0.62-0.11,0.88l-1.6,0.92C205.8,173.42,205.12,173.45,204.72,173.22z"/>
		<path class="st10" d="M212.19,177.53l-4.88-2.82c-0.39-0.23-0.34-0.62,0.11-0.88l1.6-0.92c0.45-0.26,1.14-0.29,1.53-0.06
			l4.88,2.82c0.39,0.23,0.34,0.62-0.11,0.88l-1.6,0.92C213.26,177.73,212.58,177.76,212.19,177.53z"/>
		<path class="st10" d="M219.65,181.84l-4.88-2.82c-0.39-0.23-0.34-0.62,0.11-0.88l1.6-0.92c0.45-0.26,1.14-0.29,1.53-0.06
			l4.88,2.82c0.39,0.23,0.34,0.62-0.11,0.88l-1.6,0.92C220.72,182.04,220.04,182.07,219.65,181.84z"/>
		<path class="st10" d="M227.11,186.15l-4.88-2.82c-0.39-0.23-0.34-0.62,0.11-0.88l1.6-0.92c0.45-0.26,1.14-0.29,1.53-0.06
			l4.88,2.82c0.39,0.23,0.34,0.62-0.11,0.88l-1.6,0.92C228.18,186.35,227.5,186.37,227.11,186.15z"/>
		<path class="st10" d="M268.77,210.2l-4.88-2.82c-0.39-0.23-0.34-0.62,0.11-0.88l1.6-0.92c0.45-0.26,1.14-0.29,1.53-0.06l4.88,2.82
			c0.39,0.23,0.34,0.62-0.11,0.88l-1.6,0.92C269.84,210.4,269.16,210.42,268.77,210.2z"/>
		<path class="st10" d="M276.23,214.51l-4.88-2.82c-0.39-0.23-0.34-0.62,0.11-0.88l1.6-0.92c0.45-0.26,1.14-0.29,1.53-0.06
			l4.88,2.82c0.39,0.23,0.34,0.62-0.11,0.88l-1.6,0.92C277.3,214.7,276.62,214.73,276.23,214.51z"/>
		<path class="st10" d="M283.69,218.81l-4.88-2.82c-0.39-0.23-0.34-0.62,0.11-0.88l1.6-0.92c0.45-0.26,1.14-0.29,1.53-0.06
			l4.88,2.82c0.39,0.23,0.34,0.62-0.11,0.88l-1.6,0.92C284.76,219.01,284.08,219.04,283.69,218.81z"/>
		<path class="st10" d="M291.15,223.12l-4.88-2.82c-0.39-0.23-0.34-0.62,0.11-0.88l1.6-0.92c0.45-0.26,1.14-0.29,1.53-0.06
			l4.88,2.82c0.39,0.23,0.34,0.62-0.11,0.88l-1.6,0.92C292.23,223.32,291.54,223.35,291.15,223.12z"/>
		<path class="st10" d="M217.25,189.35l-4.88-2.82c-0.39-0.23-0.34-0.62,0.11-0.88l4.83-2.79c0.45-0.26,1.14-0.29,1.53-0.06
			l4.88,2.82c0.39,0.23,0.34,0.62-0.11,0.88l-4.83,2.79C218.32,189.55,217.64,189.58,217.25,189.35z"/>
		<path class="st10" d="M224.78,193.7l-4.88-2.82c-0.39-0.23-0.34-0.62,0.11-0.88l4.83-2.79c0.45-0.26,1.14-0.29,1.53-0.06
			l4.88,2.82c0.39,0.23,0.34,0.62-0.11,0.88l-4.83,2.79C225.86,193.9,225.17,193.93,224.78,193.7z"/>
		<path class="st10" d="M232.31,198.05l-4.88-2.82c-0.39-0.23-0.34-0.62,0.11-0.88l4.83-2.79c0.45-0.26,1.14-0.29,1.53-0.06
			l4.88,2.82c0.39,0.23,0.34,0.62-0.11,0.88l-4.83,2.79C233.39,198.25,232.7,198.27,232.31,198.05z"/>
		<path class="st10" d="M239.84,202.4l-4.88-2.82c-0.39-0.23-0.34-0.62,0.11-0.88l4.83-2.79c0.45-0.26,1.14-0.29,1.53-0.06
			l4.88,2.82c0.39,0.23,0.34,0.62-0.11,0.88l-4.83,2.79C240.92,202.59,240.23,202.62,239.84,202.4z"/>
		<path class="st10" d="M247.37,206.74l-4.88-2.82c-0.39-0.23-0.34-0.62,0.11-0.88l4.83-2.79c0.45-0.26,1.14-0.29,1.53-0.06
			l4.88,2.82c0.39,0.23,0.34,0.62-0.11,0.88l-4.83,2.79C248.45,206.94,247.76,206.97,247.37,206.74z"/>
		<path class="st10" d="M254.9,211.09l-4.88-2.82c-0.39-0.23-0.34-0.62,0.11-0.88l4.83-2.79c0.45-0.26,1.14-0.29,1.53-0.06
			l4.88,2.82c0.39,0.23,0.34,0.62-0.11,0.88l-4.83,2.79C255.98,211.29,255.29,211.32,254.9,211.09z"/>
		<path class="st10" d="M262.43,215.44l-4.88-2.82c-0.39-0.23-0.34-0.62,0.11-0.88l4.83-2.79c0.45-0.26,1.14-0.29,1.53-0.06
			l4.88,2.82c0.39,0.23,0.34,0.62-0.11,0.88l-4.83,2.79C263.51,215.64,262.82,215.66,262.43,215.44z"/>
		<path class="st10" d="M269.96,219.79l-4.88-2.82c-0.39-0.23-0.34-0.62,0.11-0.88l4.83-2.79c0.45-0.26,1.14-0.29,1.53-0.06
			l4.88,2.82c0.39,0.23,0.34,0.62-0.11,0.88l-4.83,2.79C271.04,219.98,270.35,220.01,269.96,219.79z"/>
		<path class="st10" d="M277.49,224.13l-4.88-2.82c-0.39-0.23-0.34-0.62,0.11-0.88l4.83-2.79c0.45-0.26,1.14-0.29,1.53-0.06
			l4.88,2.82c0.39,0.23,0.34,0.62-0.11,0.88l-4.83,2.79C278.57,224.33,277.88,224.36,277.49,224.13z"/>
		<path class="st10" d="M174.2,189.89l-14.36-8.29c-0.39-0.23-0.34-0.62,0.11-0.88l4.83-2.79c0.45-0.26,1.14-0.29,1.53-0.06
			l14.36,8.29c0.39,0.23,0.34,0.62-0.11,0.88l-4.83,2.79C175.27,190.09,174.59,190.12,174.2,189.89z"/>
		<path class="st10" d="M266.71,243.3l-14.36-8.29c-0.39-0.23-0.34-0.62,0.11-0.88l4.83-2.79c0.45-0.26,1.14-0.29,1.53-0.06
			l14.36,8.29c0.39,0.23,0.34,0.62-0.11,0.88l-4.83,2.79C267.78,243.5,267.1,243.53,266.71,243.3z"/>
		<path class="st10" d="M236.59,235.52l-4.88-2.82c-0.39-0.23-0.34-0.62,0.11-0.88l5.76-3.32c0.45-0.26,1.14-0.29,1.53-0.06
			l4.88,2.82c0.39,0.23,0.34,0.62-0.11,0.88l-5.76,3.32C237.67,235.72,236.99,235.74,236.59,235.52z"/>
		<path class="st10" d="M181.91,203.95l-7.8-4.5c-0.39-0.23-0.34-0.62,0.11-0.88l5.76-3.32c0.45-0.26,1.14-0.29,1.53-0.06l7.8,4.5
			c0.39,0.23,0.34,0.62-0.11,0.88l-5.76,3.32C182.98,204.14,182.3,204.17,181.91,203.95z"/>
		<path class="st10" d="M229.34,231.33l-7.8-4.5c-0.39-0.23-0.34-0.62,0.11-0.88l5.76-3.32c0.45-0.26,1.14-0.29,1.53-0.06l7.8,4.5
			c0.39,0.23,0.34,0.62-0.11,0.88l-5.76,3.32C230.41,231.53,229.73,231.55,229.34,231.33z"/>
		<path class="st10" d="M192.77,210.22l-7.8-4.5c-0.39-0.23-0.34-0.62,0.11-0.88l5.76-3.32c0.45-0.26,1.14-0.29,1.53-0.06l7.8,4.5
			c0.39,0.23,0.34,0.62-0.11,0.88l-5.76,3.32C193.85,210.42,193.17,210.44,192.77,210.22z"/>
		<path class="st10" d="M192.42,201.48l33.9,19.58c0.42,0.24,0.42,0.64,0,0.88l-5.87,3.39c-0.42,0.24-1.1,0.24-1.52,0l-33.9-19.58
			L192.42,201.48z"/>
		<path class="st10" d="M257.64,243.4l5.43,3.14c0.32,0.19,0.28,0.51-0.09,0.72l-2.35,1.36c-0.37,0.21-0.93,0.24-1.25,0.05
			l-5.43-3.14c-0.32-0.19-0.28-0.51,0.09-0.72l2.35-1.36C256.76,243.24,257.32,243.22,257.64,243.4z"/>
		<path class="st10" d="M250.05,239.02l5.43,3.14c0.32,0.19,0.28,0.51-0.09,0.72l-2.35,1.36c-0.37,0.21-0.93,0.24-1.25,0.05
			l-5.43-3.14c-0.32-0.19-0.28-0.51,0.09-0.72l2.35-1.36C249.17,238.85,249.73,238.83,250.05,239.02z"/>
		<path class="st10" d="M242.52,234.67l5.43,3.14c0.32,0.19,0.28,0.51-0.09,0.72l-2.35,1.36c-0.37,0.21-0.93,0.24-1.25,0.05
			l-5.43-3.14c-0.32-0.19-0.28-0.51,0.09-0.72l2.35-1.36C241.64,234.51,242.2,234.48,242.52,234.67z"/>
		<path class="st10" d="M254.21,236.62l5.43,3.14c0.32,0.19,0.28,0.51-0.09,0.72l-2.35,1.36c-0.37,0.21-0.93,0.24-1.25,0.05
			l-5.43-3.14c-0.32-0.19-0.28-0.51,0.09-0.72l2.35-1.36C253.32,236.45,253.88,236.43,254.21,236.62z"/>
	</g>
	<g class="st9">
		<path class="st10" d="M156.4,189.22l-4.88-2.82c-0.39-0.23-0.34-0.62,0.11-0.88l5.76-3.32c0.45-0.26,1.14-0.29,1.53-0.06
			l4.88,2.82c0.39,0.23,0.34,0.62-0.11,0.88l-5.76,3.32C157.47,189.41,156.79,189.44,156.4,189.22z"/>
		<path class="st10" d="M163.93,193.56l-4.88-2.82c-0.39-0.23-0.34-0.62,0.11-0.88l5.76-3.32c0.45-0.26,1.14-0.29,1.53-0.06
			l4.88,2.82c0.39,0.23,0.34,0.62-0.11,0.88l-5.76,3.32C165,193.76,164.32,193.79,163.93,193.56z"/>
		<path class="st10" d="M171.46,197.91l-4.88-2.82c-0.39-0.23-0.34-0.62,0.11-0.88l5.76-3.32c0.45-0.26,1.14-0.29,1.53-0.06
			l4.88,2.82c0.39,0.23,0.34,0.62-0.11,0.88l-5.76,3.32C172.53,198.11,171.85,198.14,171.46,197.91z"/>
		<path class="st10" d="M181.87,194.32L177,191.5c-0.39-0.23-0.34-0.62,0.11-0.88l4.83-2.79c0.45-0.26,1.14-0.29,1.53-0.06
			l4.88,2.82c0.39,0.23,0.34,0.62-0.11,0.88l-4.83,2.79C182.95,194.52,182.26,194.55,181.87,194.32z"/>
		<path class="st10" d="M189.4,198.67l-4.88-2.82c-0.39-0.23-0.34-0.62,0.11-0.88l4.83-2.79c0.45-0.26,1.14-0.29,1.53-0.06
			l4.88,2.82c0.39,0.23,0.34,0.62-0.11,0.88l-4.83,2.79C190.48,198.87,189.79,198.89,189.4,198.67z"/>
		<path class="st10" d="M196.93,203.02l-4.88-2.82c-0.39-0.23-0.34-0.62,0.11-0.88l4.83-2.79c0.45-0.26,1.14-0.29,1.53-0.06
			l4.88,2.82c0.39,0.23,0.34,0.62-0.11,0.88l-4.83,2.79C198.01,203.21,197.32,203.24,196.93,203.02z"/>
		<path class="st10" d="M204.46,207.36l-4.88-2.82c-0.39-0.23-0.34-0.62,0.11-0.88l4.83-2.79c0.45-0.26,1.14-0.29,1.53-0.06
			l4.88,2.82c0.39,0.23,0.34,0.62-0.11,0.88l-4.83,2.79C205.54,207.56,204.85,207.59,204.46,207.36z"/>
		<path class="st10" d="M211.99,211.71l-4.88-2.82c-0.39-0.23-0.34-0.62,0.11-0.88l4.83-2.79c0.45-0.26,1.14-0.29,1.53-0.06
			l4.88,2.82c0.39,0.23,0.34,0.62-0.11,0.88l-4.83,2.79C213.07,211.91,212.38,211.94,211.99,211.71z"/>
		<path class="st10" d="M219.52,216.06l-4.88-2.82c-0.39-0.23-0.34-0.62,0.11-0.88l4.83-2.79c0.45-0.26,1.14-0.29,1.53-0.06
			l4.88,2.82c0.39,0.23,0.34,0.62-0.11,0.88l-4.83,2.79C220.6,216.26,219.91,216.28,219.52,216.06z"/>
		<path class="st10" d="M227.05,220.41l-4.88-2.82c-0.39-0.23-0.34-0.62,0.11-0.88l4.83-2.79c0.45-0.26,1.14-0.29,1.53-0.06
			l4.88,2.82c0.39,0.23,0.34,0.62-0.11,0.88l-4.83,2.79C228.13,220.6,227.44,220.63,227.05,220.41z"/>
		<path class="st10" d="M234.58,224.75l-4.88-2.82c-0.39-0.23-0.34-0.62,0.11-0.88l4.83-2.79c0.45-0.26,1.14-0.29,1.53-0.06
			l4.88,2.82c0.39,0.23,0.34,0.62-0.11,0.88l-4.83,2.79C235.66,224.95,234.97,224.98,234.58,224.75z"/>
		<path class="st10" d="M242.11,229.1l-4.88-2.82c-0.39-0.23-0.34-0.62,0.11-0.88l4.83-2.79c0.45-0.26,1.14-0.29,1.53-0.06
			l4.88,2.82c0.39,0.23,0.34,0.62-0.11,0.88l-4.83,2.79C243.19,229.3,242.51,229.33,242.11,229.1z"/>
		<path class="st10" d="M249.64,233.45l-4.88-2.82c-0.39-0.23-0.34-0.62,0.11-0.88l4.83-2.79c0.45-0.26,1.14-0.29,1.53-0.06
			l4.88,2.82c0.39,0.23,0.34,0.62-0.11,0.88l-4.83,2.79C250.72,233.65,250.04,233.67,249.64,233.45z"/>
		<path class="st10" d="M192.97,192.26l-4.88-2.82c-0.39-0.23-0.34-0.62,0.11-0.88l4.83-2.79c0.45-0.26,1.14-0.29,1.53-0.06
			l4.88,2.82c0.39,0.23,0.34,0.62-0.11,0.88l-4.83,2.79C194.04,192.46,193.36,192.49,192.97,192.26z"/>
		<path class="st10" d="M185.32,187.85l-4.88-2.82c-0.39-0.23-0.34-0.62,0.11-0.88l4.83-2.79c0.45-0.26,1.14-0.29,1.53-0.06
			l4.88,2.82c0.39,0.23,0.34,0.62-0.11,0.88l-4.83,2.79C186.4,188.05,185.72,188.08,185.32,187.85z"/>
		<path class="st10" d="M177.67,183.43l-10.5-6.06c-0.39-0.23-0.34-0.62,0.11-0.88l4.83-2.79c0.45-0.26,1.14-0.29,1.53-0.06
			l10.5,6.06c0.39,0.23,0.34,0.62-0.11,0.88l-4.83,2.79C178.74,183.63,178.06,183.66,177.67,183.43z"/>
		<path class="st10" d="M183.02,178.05l-8.52-4.92c-0.39-0.23-0.34-0.62,0.11-0.88l4.83-2.79c0.45-0.26,1.14-0.29,1.53-0.06
			l8.52,4.92c0.39,0.23,0.34,0.62-0.11,0.88l-4.83,2.79C184.1,178.25,183.41,178.28,183.02,178.05z"/>
		<path class="st10" d="M200.5,196.61l-4.88-2.82c-0.39-0.23-0.34-0.62,0.11-0.88l4.83-2.79c0.45-0.26,1.14-0.29,1.53-0.06
			l4.88,2.82c0.39,0.23,0.34,0.62-0.11,0.88l-4.83,2.79C201.57,196.81,200.89,196.84,200.5,196.61z"/>
		<path class="st10" d="M208.03,200.96l-4.88-2.82c-0.39-0.23-0.34-0.62,0.11-0.88l4.83-2.79c0.45-0.26,1.14-0.29,1.53-0.06
			l4.88,2.82c0.39,0.23,0.34,0.62-0.11,0.88l-4.83,2.79C209.1,201.15,208.42,201.18,208.03,200.96z"/>
		<path class="st10" d="M215.56,205.3l-4.88-2.82c-0.39-0.23-0.34-0.62,0.11-0.88l4.83-2.79c0.45-0.26,1.14-0.29,1.53-0.06
			l4.88,2.82c0.39,0.23,0.34,0.62-0.11,0.88l-4.83,2.79C216.63,205.5,215.95,205.53,215.56,205.3z"/>
		<path class="st10" d="M223.09,209.65l-4.88-2.82c-0.39-0.23-0.34-0.62,0.11-0.88l4.83-2.79c0.45-0.26,1.14-0.29,1.53-0.06
			l4.88,2.82c0.39,0.23,0.34,0.62-0.11,0.88l-4.83,2.79C224.16,209.85,223.48,209.88,223.09,209.65z"/>
		<path class="st10" d="M230.62,214l-4.88-2.82c-0.39-0.23-0.34-0.62,0.11-0.88l4.83-2.79c0.45-0.26,1.14-0.29,1.53-0.06l4.88,2.82
			c0.39,0.23,0.34,0.62-0.11,0.88l-4.83,2.79C231.69,214.2,231.01,214.23,230.62,214z"/>
		<path class="st10" d="M238.15,218.35l-4.88-2.82c-0.39-0.23-0.34-0.62,0.11-0.88l4.83-2.79c0.45-0.26,1.14-0.29,1.53-0.06
			l4.88,2.82c0.39,0.23,0.34,0.62-0.11,0.88l-4.83,2.79C239.22,218.55,238.54,218.57,238.15,218.35z"/>
		<path class="st10" d="M245.68,222.7l-4.88-2.82c-0.39-0.23-0.34-0.62,0.11-0.88l4.83-2.79c0.45-0.26,1.14-0.29,1.53-0.06
			l4.88,2.82c0.39,0.23,0.34,0.62-0.11,0.88l-4.83,2.79C246.75,222.89,246.07,222.92,245.68,222.7z"/>
		<path class="st10" d="M253.21,227.04l-4.88-2.82c-0.39-0.23-0.34-0.62,0.11-0.88l4.83-2.79c0.45-0.26,1.14-0.29,1.53-0.06
			l4.88,2.82c0.39,0.23,0.34,0.62-0.11,0.88l-4.83,2.79C254.28,227.24,253.6,227.27,253.21,227.04z"/>
		<path class="st10" d="M260.74,231.39l-4.88-2.82c-0.39-0.23-0.34-0.62,0.11-0.88l4.83-2.79c0.45-0.26,1.14-0.29,1.53-0.06
			l4.88,2.82c0.39,0.23,0.34,0.62-0.11,0.88l-4.83,2.79C261.81,231.59,261.13,231.62,260.74,231.39z"/>
		<path class="st10" d="M274.13,239.12l-10.64-6.14c-0.39-0.23-0.34-0.62,0.11-0.88l4.83-2.79c0.45-0.26,1.14-0.29,1.53-0.06
			l10.64,6.14c0.39,0.23,0.34,0.62-0.11,0.88l-4.83,2.79C275.2,239.32,274.52,239.35,274.13,239.12z"/>
		<path class="st10" d="M288.79,230.66l-8.98-5.18c-0.39-0.23-0.34-0.62,0.11-0.88l4.83-2.79c0.45-0.26,1.14-0.29,1.53-0.06
			l8.98,5.18c0.39,0.23,0.34,0.62-0.11,0.88l-4.83,2.79C289.86,230.85,289.18,230.88,288.79,230.66z"/>
		<path class="st10" d="M213.68,195.76l-4.88-2.82c-0.39-0.23-0.34-0.62,0.11-0.88l4.83-2.79c0.45-0.26,1.14-0.29,1.53-0.06
			l4.88,2.82c0.39,0.23,0.34,0.62-0.11,0.88l-4.83,2.79C214.76,195.96,214.08,195.98,213.68,195.76z"/>
		<path class="st10" d="M205.97,191.3l-4.88-2.82c-0.39-0.23-0.34-0.62,0.11-0.88l4.83-2.79c0.45-0.26,1.14-0.29,1.53-0.06
			l4.88,2.82c0.39,0.23,0.34,0.62-0.11,0.88l-4.83,2.79C207.04,191.5,206.36,191.53,205.97,191.3z"/>
		<path class="st10" d="M198.25,186.85l-4.88-2.82c-0.39-0.23-0.34-0.62,0.11-0.88l4.83-2.79c0.45-0.26,1.14-0.29,1.53-0.06
			l4.88,2.82c0.39,0.23,0.34,0.62-0.11,0.88l-4.83,2.79C199.32,187.04,198.64,187.07,198.25,186.85z"/>
		<path class="st10" d="M190.53,182.39l-4.88-2.82c-0.39-0.23-0.34-0.62,0.11-0.88l4.83-2.79c0.45-0.26,1.14-0.29,1.53-0.06
			l4.88,2.82c0.39,0.23,0.34,0.62-0.11,0.88l-4.83,2.79C191.61,182.59,190.92,182.62,190.53,182.39z"/>
		<path class="st10" d="M221.21,200.11l-4.88-2.82c-0.39-0.23-0.34-0.62,0.11-0.88l4.83-2.79c0.45-0.26,1.14-0.29,1.53-0.06
			l4.88,2.82c0.39,0.23,0.34,0.62-0.11,0.88l-4.83,2.79C222.29,200.3,221.61,200.33,221.21,200.11z"/>
		<path class="st10" d="M228.74,204.45l-4.88-2.82c-0.39-0.23-0.34-0.62,0.11-0.88l4.83-2.79c0.45-0.26,1.14-0.29,1.53-0.06
			l4.88,2.82c0.39,0.23,0.34,0.62-0.11,0.88l-4.83,2.79C229.82,204.65,229.14,204.68,228.74,204.45z"/>
		<path class="st10" d="M236.28,208.8l-4.88-2.82c-0.39-0.23-0.34-0.62,0.11-0.88l4.83-2.79c0.45-0.26,1.14-0.29,1.53-0.06
			l4.88,2.82c0.39,0.23,0.34,0.62-0.11,0.88l-4.83,2.79C237.35,209,236.67,209.03,236.28,208.8z"/>
		<path class="st10" d="M243.81,213.15l-4.88-2.82c-0.39-0.23-0.34-0.62,0.11-0.88l4.83-2.79c0.45-0.26,1.14-0.29,1.53-0.06
			l4.88,2.82c0.39,0.23,0.34,0.62-0.11,0.88l-4.83,2.79C244.88,213.35,244.2,213.38,243.81,213.15z"/>
		<path class="st10" d="M251.34,217.5l-4.88-2.82c-0.39-0.23-0.34-0.62,0.11-0.88l4.83-2.79c0.45-0.26,1.14-0.29,1.53-0.06
			l4.88,2.82c0.39,0.23,0.34,0.62-0.11,0.88l-4.83,2.79C252.41,217.69,251.73,217.72,251.34,217.5z"/>
		<path class="st10" d="M258.87,221.84l-4.88-2.82c-0.39-0.23-0.34-0.62,0.11-0.88l4.83-2.79c0.45-0.26,1.14-0.29,1.53-0.06
			l4.88,2.82c0.39,0.23,0.34,0.62-0.11,0.88l-4.83,2.79C259.94,222.04,259.26,222.07,258.87,221.84z"/>
		<path class="st10" d="M266.4,226.19l-4.88-2.82c-0.39-0.23-0.34-0.62,0.11-0.88l4.83-2.79c0.45-0.26,1.14-0.29,1.53-0.06
			l4.88,2.82c0.39,0.23,0.34,0.62-0.11,0.88l-4.83,2.79C267.47,226.39,266.79,226.42,266.4,226.19z"/>
		<path class="st10" d="M273.93,230.54l-4.88-2.82c-0.39-0.23-0.34-0.62,0.11-0.88l4.83-2.79c0.45-0.26,1.14-0.29,1.53-0.06
			l4.88,2.82c0.39,0.23,0.34,0.62-0.11,0.88l-4.83,2.79C275,230.74,274.32,230.77,273.93,230.54z"/>
		<path class="st10" d="M281.46,234.89l-4.88-2.82c-0.39-0.23-0.34-0.62,0.11-0.88l4.83-2.79c0.45-0.26,1.14-0.29,1.53-0.06
			l4.88,2.82c0.39,0.23,0.34,0.62-0.11,0.88l-4.83,2.79C282.53,235.08,281.85,235.11,281.46,234.89z"/>
		<path class="st10" d="M209.72,185.01l-4.88-2.82c-0.39-0.23-0.34-0.62,0.11-0.88l4.83-2.79c0.45-0.26,1.14-0.29,1.53-0.06
			l4.88,2.82c0.39,0.23,0.34,0.62-0.11,0.88l-4.83,2.79C210.79,185.2,210.11,185.23,209.72,185.01z"/>
		<path class="st10" d="M202.23,180.68l-4.88-2.82c-0.39-0.23-0.34-0.62,0.11-0.88l4.83-2.79c0.45-0.26,1.14-0.29,1.53-0.06
			l4.88,2.82c0.39,0.23,0.34,0.62-0.11,0.88l-4.83,2.79C203.3,180.88,202.62,180.91,202.23,180.68z"/>
		<path class="st10" d="M194.73,176.35l-4.88-2.82c-0.39-0.23-0.34-0.62,0.11-0.88l4.83-2.79c0.45-0.26,1.14-0.29,1.53-0.06
			l4.88,2.82c0.39,0.23,0.34,0.62-0.11,0.88l-4.83,2.79C195.81,176.55,195.13,176.58,194.73,176.35z"/>
		<path class="st10" d="M187.24,172.03l-4.88-2.82c-0.39-0.23-0.34-0.62,0.11-0.88l4.83-2.79c0.45-0.26,1.14-0.29,1.53-0.06
			l4.88,2.82c0.39,0.23,0.34,0.62-0.11,0.88l-4.83,2.79C188.32,172.23,187.63,172.25,187.24,172.03z"/>
		<path class="st10" d="M194.95,167.58l-4.88-2.82c-0.39-0.23-0.34-0.62,0.11-0.88l1.6-0.92c0.45-0.26,1.14-0.29,1.53-0.06
			l4.88,2.82c0.39,0.23,0.34,0.62-0.11,0.88l-1.6,0.92C196.02,167.78,195.34,167.8,194.95,167.58z"/>
		<path class="st10" d="M204.72,173.22l-4.88-2.82c-0.39-0.23-0.34-0.62,0.11-0.88l1.6-0.92c0.45-0.26,1.14-0.29,1.53-0.06
			l4.88,2.82c0.39,0.23,0.34,0.62-0.11,0.88l-1.6,0.92C205.8,173.42,205.12,173.45,204.72,173.22z"/>
		<path class="st10" d="M212.19,177.53l-4.88-2.82c-0.39-0.23-0.34-0.62,0.11-0.88l1.6-0.92c0.45-0.26,1.14-0.29,1.53-0.06
			l4.88,2.82c0.39,0.23,0.34,0.62-0.11,0.88l-1.6,0.92C213.26,177.73,212.58,177.76,212.19,177.53z"/>
		<path class="st10" d="M219.65,181.84l-4.88-2.82c-0.39-0.23-0.34-0.62,0.11-0.88l1.6-0.92c0.45-0.26,1.14-0.29,1.53-0.06
			l4.88,2.82c0.39,0.23,0.34,0.62-0.11,0.88l-1.6,0.92C220.72,182.04,220.04,182.07,219.65,181.84z"/>
		<path class="st10" d="M227.11,186.15l-4.88-2.82c-0.39-0.23-0.34-0.62,0.11-0.88l1.6-0.92c0.45-0.26,1.14-0.29,1.53-0.06
			l4.88,2.82c0.39,0.23,0.34,0.62-0.11,0.88l-1.6,0.92C228.18,186.35,227.5,186.37,227.11,186.15z"/>
		<path class="st10" d="M268.77,210.2l-4.88-2.82c-0.39-0.23-0.34-0.62,0.11-0.88l1.6-0.92c0.45-0.26,1.14-0.29,1.53-0.06l4.88,2.82
			c0.39,0.23,0.34,0.62-0.11,0.88l-1.6,0.92C269.84,210.4,269.16,210.42,268.77,210.2z"/>
		<path class="st10" d="M276.23,214.51l-4.88-2.82c-0.39-0.23-0.34-0.62,0.11-0.88l1.6-0.92c0.45-0.26,1.14-0.29,1.53-0.06
			l4.88,2.82c0.39,0.23,0.34,0.62-0.11,0.88l-1.6,0.92C277.3,214.7,276.62,214.73,276.23,214.51z"/>
		<path class="st10" d="M283.69,218.81l-4.88-2.82c-0.39-0.23-0.34-0.62,0.11-0.88l1.6-0.92c0.45-0.26,1.14-0.29,1.53-0.06
			l4.88,2.82c0.39,0.23,0.34,0.62-0.11,0.88l-1.6,0.92C284.76,219.01,284.08,219.04,283.69,218.81z"/>
		<path class="st10" d="M291.15,223.12l-4.88-2.82c-0.39-0.23-0.34-0.62,0.11-0.88l1.6-0.92c0.45-0.26,1.14-0.29,1.53-0.06
			l4.88,2.82c0.39,0.23,0.34,0.62-0.11,0.88l-1.6,0.92C292.23,223.32,291.54,223.35,291.15,223.12z"/>
		<path class="st10" d="M217.25,189.35l-4.88-2.82c-0.39-0.23-0.34-0.62,0.11-0.88l4.83-2.79c0.45-0.26,1.14-0.29,1.53-0.06
			l4.88,2.82c0.39,0.23,0.34,0.62-0.11,0.88l-4.83,2.79C218.32,189.55,217.64,189.58,217.25,189.35z"/>
		<path class="st10" d="M224.78,193.7l-4.88-2.82c-0.39-0.23-0.34-0.62,0.11-0.88l4.83-2.79c0.45-0.26,1.14-0.29,1.53-0.06
			l4.88,2.82c0.39,0.23,0.34,0.62-0.11,0.88l-4.83,2.79C225.86,193.9,225.17,193.93,224.78,193.7z"/>
		<path class="st10" d="M232.31,198.05l-4.88-2.82c-0.39-0.23-0.34-0.62,0.11-0.88l4.83-2.79c0.45-0.26,1.14-0.29,1.53-0.06
			l4.88,2.82c0.39,0.23,0.34,0.62-0.11,0.88l-4.83,2.79C233.39,198.25,232.7,198.27,232.31,198.05z"/>
		<path class="st10" d="M239.84,202.4l-4.88-2.82c-0.39-0.23-0.34-0.62,0.11-0.88l4.83-2.79c0.45-0.26,1.14-0.29,1.53-0.06
			l4.88,2.82c0.39,0.23,0.34,0.62-0.11,0.88l-4.83,2.79C240.92,202.59,240.23,202.62,239.84,202.4z"/>
		<path class="st10" d="M247.37,206.74l-4.88-2.82c-0.39-0.23-0.34-0.62,0.11-0.88l4.83-2.79c0.45-0.26,1.14-0.29,1.53-0.06
			l4.88,2.82c0.39,0.23,0.34,0.62-0.11,0.88l-4.83,2.79C248.45,206.94,247.76,206.97,247.37,206.74z"/>
		<path class="st10" d="M254.9,211.09l-4.88-2.82c-0.39-0.23-0.34-0.62,0.11-0.88l4.83-2.79c0.45-0.26,1.14-0.29,1.53-0.06
			l4.88,2.82c0.39,0.23,0.34,0.62-0.11,0.88l-4.83,2.79C255.98,211.29,255.29,211.32,254.9,211.09z"/>
		<path class="st10" d="M262.43,215.44l-4.88-2.82c-0.39-0.23-0.34-0.62,0.11-0.88l4.83-2.79c0.45-0.26,1.14-0.29,1.53-0.06
			l4.88,2.82c0.39,0.23,0.34,0.62-0.11,0.88l-4.83,2.79C263.51,215.64,262.82,215.66,262.43,215.44z"/>
		<path class="st10" d="M269.96,219.79l-4.88-2.82c-0.39-0.23-0.34-0.62,0.11-0.88l4.83-2.79c0.45-0.26,1.14-0.29,1.53-0.06
			l4.88,2.82c0.39,0.23,0.34,0.62-0.11,0.88l-4.83,2.79C271.04,219.98,270.35,220.01,269.96,219.79z"/>
		<path class="st10" d="M277.49,224.13l-4.88-2.82c-0.39-0.23-0.34-0.62,0.11-0.88l4.83-2.79c0.45-0.26,1.14-0.29,1.53-0.06
			l4.88,2.82c0.39,0.23,0.34,0.62-0.11,0.88l-4.83,2.79C278.57,224.33,277.88,224.36,277.49,224.13z"/>
		<path class="st10" d="M174.2,189.89l-14.36-8.29c-0.39-0.23-0.34-0.62,0.11-0.88l4.83-2.79c0.45-0.26,1.14-0.29,1.53-0.06
			l14.36,8.29c0.39,0.23,0.34,0.62-0.11,0.88l-4.83,2.79C175.27,190.09,174.59,190.12,174.2,189.89z"/>
		<path class="st10" d="M266.71,243.3l-14.36-8.29c-0.39-0.23-0.34-0.62,0.11-0.88l4.83-2.79c0.45-0.26,1.14-0.29,1.53-0.06
			l14.36,8.29c0.39,0.23,0.34,0.62-0.11,0.88l-4.83,2.79C267.78,243.5,267.1,243.53,266.71,243.3z"/>
		<path class="st10" d="M236.59,235.52l-4.88-2.82c-0.39-0.23-0.34-0.62,0.11-0.88l5.76-3.32c0.45-0.26,1.14-0.29,1.53-0.06
			l4.88,2.82c0.39,0.23,0.34,0.62-0.11,0.88l-5.76,3.32C237.67,235.72,236.99,235.74,236.59,235.52z"/>
		<path class="st10" d="M181.91,203.95l-7.8-4.5c-0.39-0.23-0.34-0.62,0.11-0.88l5.76-3.32c0.45-0.26,1.14-0.29,1.53-0.06l7.8,4.5
			c0.39,0.23,0.34,0.62-0.11,0.88l-5.76,3.32C182.98,204.14,182.3,204.17,181.91,203.95z"/>
		<path class="st10" d="M229.34,231.33l-7.8-4.5c-0.39-0.23-0.34-0.62,0.11-0.88l5.76-3.32c0.45-0.26,1.14-0.29,1.53-0.06l7.8,4.5
			c0.39,0.23,0.34,0.62-0.11,0.88l-5.76,3.32C230.41,231.53,229.73,231.55,229.34,231.33z"/>
		<path class="st10" d="M192.77,210.22l-7.8-4.5c-0.39-0.23-0.34-0.62,0.11-0.88l5.76-3.32c0.45-0.26,1.14-0.29,1.53-0.06l7.8,4.5
			c0.39,0.23,0.34,0.62-0.11,0.88l-5.76,3.32C193.85,210.42,193.17,210.44,192.77,210.22z"/>
		<path class="st10" d="M192.42,201.48l33.9,19.58c0.42,0.24,0.42,0.64,0,0.88l-5.87,3.39c-0.42,0.24-1.1,0.24-1.52,0l-33.9-19.58
			L192.42,201.48z"/>
		<path class="st10" d="M257.64,243.4l5.43,3.14c0.32,0.19,0.28,0.51-0.09,0.72l-2.35,1.36c-0.37,0.21-0.93,0.24-1.25,0.05
			l-5.43-3.14c-0.32-0.19-0.28-0.51,0.09-0.72l2.35-1.36C256.76,243.24,257.32,243.22,257.64,243.4z"/>
		<path class="st10" d="M250.05,239.02l5.43,3.14c0.32,0.19,0.28,0.51-0.09,0.72l-2.35,1.36c-0.37,0.21-0.93,0.24-1.25,0.05
			l-5.43-3.14c-0.32-0.19-0.28-0.51,0.09-0.72l2.35-1.36C249.17,238.85,249.73,238.83,250.05,239.02z"/>
		<path class="st10" d="M242.52,234.67l5.43,3.14c0.32,0.19,0.28,0.51-0.09,0.72l-2.35,1.36c-0.37,0.21-0.93,0.24-1.25,0.05
			l-5.43-3.14c-0.32-0.19-0.28-0.51,0.09-0.72l2.35-1.36C241.64,234.51,242.2,234.48,242.52,234.67z"/>
		<path class="st10" d="M254.21,236.62l5.43,3.14c0.32,0.19,0.28,0.51-0.09,0.72l-2.35,1.36c-0.37,0.21-0.93,0.24-1.25,0.05
			l-5.43-3.14c-0.32-0.19-0.28-0.51,0.09-0.72l2.35-1.36C253.32,236.45,253.88,236.43,254.21,236.62z"/>
	</g>
	<radialGradient id="SVGID_8_" cx="165.6929" cy="70.1489" r="223.3409" gradientUnits="userSpaceOnUse">
		<stop  offset="0" style="stop-color:#E39A65"/>
		<stop  offset="0.4742" style="stop-color:#A92FFB"/>
		<stop  offset="0.5875" style="stop-color:#891CFB"/>
		<stop  offset="0.7262" style="stop-color:#6507FA"/>
		<stop  offset="1" style="stop-color:#3919BB"/>
	</radialGradient>
	<path class="st11" d="M333.9,227.82l-143.86-83.06c-2.26-1.31-3.44-4.49-2.64-7.11l32.53-105.63c0.81-2.62,3.29-3.68,5.56-2.38
		l143.86,83.06c2.26,1.31,3.44,4.49,2.64,7.11l-32.53,105.63C338.65,228.06,336.16,229.13,333.9,227.82z"/>
	<linearGradient id="SVGID_9_" gradientUnits="userSpaceOnUse" x1="190.2406" y1="128.7763" x2="369.207" y2="128.7763">
		<stop  offset="0" style="stop-color:#3919BB"/>
		<stop  offset="1" style="stop-color:#6507FA"/>
	</linearGradient>
	<path class="st12" d="M332.54,224.12l-139.54-80.63c-2.16-1.25-3.29-4.3-2.52-6.8l31.1-100.98c0.77-2.51,3.15-3.53,5.32-2.28
		l139.54,80.63c2.16,1.25,3.29,4.3,2.52,6.8l-31.1,100.98C337.09,224.35,334.71,225.37,332.54,224.12z"/>
	<path class="st13" d="M332.54,224.12l-139.54-80.63c-2.16-1.25-3.29-4.3-2.52-6.8l31.1-100.98c0.77-2.51,3.15-3.53,5.32-2.28
		l139.54,80.63c2.16,1.25,3.29,4.3,2.52,6.8l-31.1,100.98C337.09,224.35,334.71,225.37,332.54,224.12z"/>
	<path class="st13" d="M332.54,224.12l-139.54-80.63c-2.16-1.25-3.29-4.3-2.52-6.8l31.1-100.98c0.77-2.51,3.15-3.53,5.32-2.28
		l139.54,80.63c2.16,1.25,3.29,4.3,2.52,6.8l-31.1,100.98C337.09,224.35,334.71,225.37,332.54,224.12z"/>
	<path class="st14" d="M325.05,193.26l-94.46-54.54c-1.49-0.86-2.26-2.95-1.73-4.67l21.36-69.36c0.53-1.72,2.16-2.42,3.65-1.56
		l94.46,54.54c1.49,0.86,2.26,2.95,1.73,4.67L328.7,191.7C328.17,193.42,326.53,194.12,325.05,193.26z"/>
	<g>
		<radialGradient id="SVGID_10_" cx="84.1612" cy="22.4556" r="347.8475" gradientUnits="userSpaceOnUse">
			<stop  offset="0" style="stop-color:#E39A65"/>
			<stop  offset="0.4742" style="stop-color:#A92FFB"/>
			<stop  offset="0.5875" style="stop-color:#891CFB"/>
			<stop  offset="0.7262" style="stop-color:#6507FA"/>
			<stop  offset="1" style="stop-color:#3919BB"/>
		</radialGradient>
		<path class="st15" d="M312.29,194.94l-94.46-54.54c-1.49-0.86-2.26-2.95-1.73-4.67l21.36-69.36c0.53-1.72,2.16-2.42,3.65-1.56
			l94.46,54.54c1.49,0.86,2.26,2.95,1.73,4.67l-21.36,69.36C315.4,195.09,313.77,195.79,312.29,194.94z"/>
	</g>
	<g class="st16">
		<path class="st10" d="M312.29,194.94l-94.46-54.54c-1.49-0.86-2.26-2.95-1.73-4.67l21.36-69.36c0.53-1.72,2.16-2.42,3.65-1.56
			l94.46,54.54c1.49,0.86,2.26,2.95,1.73,4.67l-21.36,69.36C315.4,195.09,313.77,195.79,312.29,194.94z"/>
	</g>
	<path class="st8" d="M335.56,119.35L241.1,64.81c-0.93-0.54-1.92-0.46-2.66,0.09c0.45-0.01,0.91,0.09,1.36,0.35l94.46,54.54
		c1.49,0.86,2.26,2.95,1.73,4.67l-21.36,69.36c-0.2,0.64-0.55,1.14-0.99,1.47c1.01-0.03,1.92-0.72,2.28-1.91l21.36-69.36
		C337.82,122.3,337.05,120.21,335.56,119.35z"/>
	<path class="st13" d="M193.15,251.57c-1.3,0-2.55-0.27-3.5-0.82v0L151.8,228.9c-1-0.58-1.55-1.41-1.55-2.33
		c0-1.07,0.76-2.13,2.09-2.89l19.48-11.25c2.38-1.37,5.87-1.51,7.96-0.31l37.84,21.85c1,0.58,1.55,1.41,1.56,2.33
		c0,1.07-0.76,2.13-2.09,2.89l-19.48,11.25C196.31,251.19,194.69,251.57,193.15,251.57z M176.29,212.41c-1.37,0-2.82,0.33-3.93,0.97
		l-19.48,11.25c-0.98,0.57-1.54,1.28-1.54,1.95c0,0.66,0.55,1.12,1.01,1.38l37.85,21.85c1.72,0.99,4.86,0.85,6.86-0.31l19.48-11.25
		c0.98-0.57,1.54-1.27,1.54-1.95c0-0.66-0.55-1.12-1.01-1.38l-37.84-21.85C178.46,212.63,177.4,212.41,176.29,212.41z"/>
</g>
<g>
	<g>
		<path class="st8" d="M264.11,101.2l-5.84-3.37c-0.54-0.31-0.83-1.06-0.65-1.68l0,0c0.18-0.61,0.77-0.86,1.31-0.55l5.84,3.37
			c0.54,0.31,0.83,1.06,0.65,1.68l0,0C265.24,101.27,264.65,101.51,264.11,101.2z"/>
		<path class="st8" d="M278.02,109.23l-8.61-4.97c-0.54-0.31-0.83-1.06-0.65-1.68l0,0c0.18-0.61,0.77-0.86,1.31-0.55l8.61,4.97
			c0.54,0.31,0.83,1.06,0.65,1.68l0,0C279.15,109.3,278.56,109.54,278.02,109.23z"/>
		<path class="st8" d="M252.33,127.2l-5.84-3.37c-0.54-0.31-0.83-1.06-0.65-1.68l0,0c0.18-0.61,0.77-0.86,1.31-0.55l5.84,3.37
			c0.54,0.31,0.83,1.06,0.65,1.68l0,0C253.46,127.27,252.88,127.51,252.33,127.2z"/>
		<path class="st8" d="M264.73,134.36l-8.61-4.97c-0.54-0.31-0.83-1.06-0.65-1.68l0,0c0.18-0.61,0.77-0.86,1.31-0.55l8.61,4.97
			c0.54,0.31,0.83,1.06,0.65,1.68l0,0C265.86,134.43,265.28,134.67,264.73,134.36z"/>
		<path class="st8" d="M246.62,96.57l-3.65-2.11c-0.54-0.31-0.83-1.06-0.65-1.68l0,0c0.18-0.61,0.77-0.86,1.31-0.55l3.65,2.11
			c0.54,0.31,0.83,1.06,0.65,1.68l0,0C247.75,96.63,247.16,96.88,246.62,96.57z"/>
		<path class="st8" d="M257.59,108.37l-11.15-6.44c-0.54-0.31-0.83-1.06-0.65-1.68l0,0c0.18-0.61,0.77-0.86,1.31-0.55l11.15,6.44
			c0.54,0.31,0.83,1.06,0.65,1.68l0,0C258.72,108.44,258.14,108.68,257.59,108.37z"/>
		<path class="st8" d="M247.31,113.37l-3.65-2.11c-0.54-0.31-0.83-1.06-0.65-1.68l0,0c0.18-0.61,0.77-0.86,1.31-0.55l3.65,2.11
			c0.54,0.31,0.83,1.06,0.65,1.68h0C248.44,113.44,247.86,113.68,247.31,113.37z"/>
		<path class="st8" d="M266.08,146.07l-9.74-5.63c-0.54-0.31-0.83-1.06-0.65-1.68l0,0c0.18-0.61,0.77-0.86,1.31-0.55l9.74,5.63
			c0.54,0.31,0.83,1.06,0.65,1.68l0,0C267.21,146.14,266.62,146.38,266.08,146.07z"/>
		<path class="st8" d="M243.22,121.94l-2.34-1.35c-0.54-0.31-0.83-1.06-0.65-1.68l0,0c0.18-0.61,0.77-0.86,1.31-0.55l2.34,1.35
			c0.54,0.31,0.83,1.06,0.65,1.68l0,0C244.35,122.01,243.77,122.25,243.22,121.94z"/>
		<path class="st8" d="M241.01,131.59l-2.91-1.68c-0.54-0.31-0.83-1.06-0.65-1.68v0c0.18-0.61,0.77-0.86,1.31-0.55l2.91,1.68
			c0.54,0.31,0.83,1.06,0.65,1.68l0,0C242.14,131.66,241.55,131.91,241.01,131.59z"/>
		<path class="st8" d="M252.32,138.13l-7.67-4.43c-0.54-0.31-0.83-1.06-0.65-1.68l0,0c0.18-0.61,0.77-0.86,1.31-0.55l7.67,4.43
			c0.54,0.31,0.83,1.06,0.65,1.68l0,0C253.45,138.19,252.86,138.44,252.32,138.13z"/>
		<path class="st8" d="M242.22,137.76l-5.51-3.18c-0.54-0.31-0.83-1.06-0.65-1.68l0,0c0.18-0.61,0.77-0.86,1.31-0.55l5.51,3.18
			c0.54,0.31,0.83,1.06,0.65,1.68l0,0C243.35,137.83,242.76,138.07,242.22,137.76z"/>
		<path class="st8" d="M274.44,150.92l-3.54-2.04c-0.54-0.31-0.83-1.06-0.65-1.68l0,0c0.18-0.61,0.77-0.86,1.31-0.55l3.54,2.04
			c0.54,0.31,0.83,1.06,0.65,1.68l0,0C275.57,150.99,274.98,151.23,274.44,150.92z"/>
		<path class="st8" d="M260.88,121.2l-9.74-5.63c-0.54-0.31-0.83-1.06-0.65-1.68l0,0c0.18-0.61,0.77-0.86,1.31-0.55l9.74,5.63
			c0.54,0.31,0.83,1.06,0.65,1.68l0,0C262.01,121.27,261.43,121.52,260.88,121.2z"/>
	</g>
	<path class="st17" d="M262.04,116.4l-16.98-9.8c-0.54-0.31-0.83-1.06-0.65-1.68l0,0c0.18-0.61,0.77-0.86,1.31-0.55l16.98,9.8
		c0.54,0.31,0.83,1.06,0.65,1.68l0,0C263.17,116.47,262.58,116.72,262.04,116.4z"/>
	<path class="st17" d="M252.02,121.55l-9.74-5.63c-0.54-0.31-0.83-1.06-0.65-1.68l0,0c0.18-0.61,0.77-0.86,1.31-0.55l9.74,5.63
		c0.54,0.31,0.83,1.06,0.65,1.68l0,0C253.15,121.62,252.56,121.86,252.02,121.55z"/>
	<path class="st17" d="M268.27,125.47l-3.54-2.04c-0.54-0.31-0.83-1.06-0.65-1.68l0,0c0.18-0.61,0.77-0.86,1.31-0.55l3.54,2.04
		c0.54,0.31,0.83,1.06,0.65,1.68l0,0C269.4,125.54,268.82,125.78,268.27,125.47z"/>
	<path class="st17" d="M304.29,124.39l-20.96-12.1c-0.54-0.31-0.83-1.06-0.65-1.68l0,0c0.18-0.61,0.77-0.86,1.31-0.55l20.96,12.1
		c0.54,0.31,0.83,1.06,0.65,1.68l0,0C305.42,124.46,304.83,124.71,304.29,124.39z"/>
	<path class="st18" d="M251.2,132.01l-11.71-6.76c-0.54-0.31-0.83-1.06-0.65-1.68l0,0c0.18-0.61,0.77-0.86,1.31-0.55l11.71,6.76
		c0.54,0.31,0.83,1.06,0.65,1.68l0,0C252.33,132.08,251.75,132.33,251.2,132.01z"/>
	<path class="st18" d="M252.97,94.77l-8.61-4.97c-0.54-0.31-0.83-1.06-0.65-1.68l0,0c0.18-0.61,0.77-0.86,1.31-0.55l8.61,4.97
		c0.54,0.31,0.83,1.06,0.65,1.68l0,0C254.1,94.84,253.51,95.08,252.97,94.77z"/>
	<path class="st17" d="M240.42,142.19l-9.97-5.76c-0.54-0.31-0.83-1.06-0.65-1.68l0,0c0.18-0.61,0.77-0.86,1.31-0.55l9.97,5.76
		c0.54,0.31,0.83,1.06,0.65,1.68l0,0C241.55,142.26,240.96,142.5,240.42,142.19z"/>
</g>
<g>
	<path class="st8" d="M306.64,113.61l-4.27-2.46c-0.4-0.23-0.61-0.78-0.47-1.23l0,0c0.13-0.45,0.56-0.63,0.96-0.4l4.27,2.46
		c0.4,0.23,0.61,0.78,0.47,1.23l0,0C307.46,113.66,307.03,113.84,306.64,113.61z"/>
	<path class="st8" d="M314.78,118.31l-4.27-2.46c-0.4-0.23-0.61-0.78-0.47-1.23l0,0c0.13-0.45,0.56-0.63,0.96-0.4l4.27,2.46
		c0.4,0.23,0.61,0.78,0.47,1.23l0,0C315.61,118.36,315.18,118.54,314.78,118.31z"/>
	<path class="st8" d="M322.92,123.01l-4.27-2.46c-0.4-0.23-0.61-0.78-0.47-1.23l0,0c0.13-0.45,0.56-0.63,0.96-0.4l4.27,2.46
		c0.4,0.23,0.61,0.78,0.47,1.23l0,0C323.75,123.06,323.32,123.24,322.92,123.01z"/>
	<path class="st18" d="M326.93,125.33l-0.13-0.08c-0.4-0.23-0.61-0.78-0.47-1.23l0,0c0.13-0.45,0.56-0.63,0.96-0.4l0.13,0.08
		c0.4,0.23,0.61,0.78,0.47,1.23l0,0C327.75,125.38,327.32,125.56,326.93,125.33z"/>
</g>
<linearGradient id="SVGID_11_" gradientUnits="userSpaceOnUse" x1="68.2246" y1="153.2577" x2="145" y2="153.2577">
	<stop  offset="0" style="stop-color:#E39A65"/>
	<stop  offset="1" style="stop-color:#E95F8D"/>
</linearGradient>
<path class="st19" d="M106.61,175.28c-2.7,0-5.4-0.7-7.81-2.09l0,0l-28.59-16.51c-1.24-0.72-1.98-2-1.98-3.43
	c0-1.43,0.74-2.71,1.98-3.43l28.59-16.51c4.82-2.78,10.81-2.78,15.63,0l28.59,16.51c1.24,0.72,1.98,2,1.98,3.43
	c0,1.43-0.74,2.71-1.98,3.43l-28.59,16.51C112.02,174.59,109.31,175.28,106.61,175.28z M99.73,171.58c4.25,2.45,9.52,2.45,13.77,0
	l28.59-16.51c0.66-0.38,1.05-1.06,1.05-1.82s-0.39-1.44-1.05-1.82l-28.59-16.51c-4.25-2.45-9.52-2.45-13.77,0l-28.59,16.51
	c-0.66,0.38-1.05,1.06-1.05,1.82c0,0.76,0.39,1.44,1.05,1.82L99.73,171.58z"/>
<g>
	<ellipse class="st3" cx="106.47" cy="153.65" rx="19.64" ry="11.34"/>
	<radialGradient id="SVGID_12_" cx="75.0312" cy="90.6322" r="165.349" gradientUnits="userSpaceOnUse">
		<stop  offset="0" style="stop-color:#E39A65"/>
		<stop  offset="0.1528" style="stop-color:#A92FFB"/>
		<stop  offset="0.4087" style="stop-color:#3919BB"/>
		<stop  offset="0.9311" style="stop-color:#3919BB"/>
	</radialGradient>
	<path class="st20" d="M135.58,72.83H79.64l5.2,60.57l0,0c0,3.36,2.22,6.73,6.67,9.29c8.89,5.13,23.31,5.13,32.2,0
		c4.45-2.57,6.67-5.93,6.67-9.3L135.58,72.83z"/>
	<path class="st13" d="M135.58,72.83H79.64l0.86,9.96c1.28,1.64,3.01,3.22,5.18,4.66c10.69,7.09,28.33,8.46,40.36,3.35l-1.86,44.3
		c-0.08,1.93-0.75,3.81-2,5.28c-1.81,2.13-5.3,4.64-12.01,6.06c4.95-0.32,9.75-1.57,13.54-3.76c4.45-2.57,6.67-5.93,6.67-9.3
		l4.17-48.57l0,0L135.58,72.83z"/>
	<ellipse class="st13" cx="107.61" cy="72.83" rx="27.97" ry="16.15"/>
	<ellipse class="st13" cx="107.61" cy="67.14" rx="24.09" ry="13.91"/>
	<linearGradient id="SVGID_13_" gradientUnits="userSpaceOnUse" x1="77.9576" y1="70.1488" x2="137.267" y2="70.1488">
		<stop  offset="0" style="stop-color:#E39A65"/>
		<stop  offset="0.252" style="stop-color:#A92FFB"/>
		<stop  offset="0.5556" style="stop-color:#3919BB"/>
	</linearGradient>
	<path class="st21" d="M137.24,72.07L137.24,72.07l0-0.05c0-0.03-0.01-0.06-0.01-0.08l-0.54-5.42l-0.02,0.06
		c-0.24-4.1-3.07-8.17-8.49-11.3c-11.36-6.56-29.77-6.56-41.13,0c-5.56,3.21-8.39,7.4-8.51,11.61l-0.01-0.01l-0.51,4.83
		c-0.01,0.13-0.03,0.25-0.04,0.38l-0.01,0.08l0.01,0c-0.31,4.6,2.58,9.26,8.66,12.77c11.58,6.69,30.36,6.69,41.94,0
		C134.71,81.39,137.59,76.7,137.24,72.07z"/>
	<linearGradient id="SVGID_14_" gradientUnits="userSpaceOnUse" x1="83.5188" y1="67.1352" x2="131.7031" y2="67.1352">
		<stop  offset="0" style="stop-color:#4F1FEC"/>
		<stop  offset="1" style="stop-color:#A92FFB"/>
	</linearGradient>
	<ellipse class="st22" cx="107.61" cy="67.14" rx="24.09" ry="13.91"/>
	<linearGradient id="SVGID_15_" gradientUnits="userSpaceOnUse" x1="82.3756" y1="67.1352" x2="130.5599" y2="67.1352">
		<stop  offset="0" style="stop-color:#4F1FEC"/>
		<stop  offset="1" style="stop-color:#A92FFB"/>
	</linearGradient>
	<ellipse class="st23" cx="106.47" cy="67.14" rx="24.09" ry="13.91"/>
	<path class="st13" d="M93.43,59.37c9.41-5.43,24.66-5.43,34.07,0c0.12,0.07,0.22,0.15,0.34,0.22c-0.91-0.81-1.97-1.58-3.19-2.29
		c-9.41-5.43-24.66-5.43-34.07,0c-9.29,5.36-9.39,14.01-0.34,19.46C84.19,71.37,85.25,64.09,93.43,59.37z"/>
	<linearGradient id="SVGID_16_" gradientUnits="userSpaceOnUse" x1="83.5228" y1="60.7842" x2="144.2749" y2="60.7842">
		<stop  offset="0" style="stop-color:#131060"/>
		<stop  offset="0.1857" style="stop-color:#141062"/>
		<stop  offset="0.2823" style="stop-color:#19106A"/>
		<stop  offset="0.3584" style="stop-color:#221078"/>
		<stop  offset="0.4238" style="stop-color:#2E0F8B"/>
		<stop  offset="0.4823" style="stop-color:#3E0FA3"/>
		<stop  offset="0.5359" style="stop-color:#510EC2"/>
		<stop  offset="0.5847" style="stop-color:#680DE5"/>
		<stop  offset="0.6071" style="stop-color:#740DF8"/>
		<stop  offset="0.6179" style="stop-color:#7A14F0"/>
		<stop  offset="0.6826" style="stop-color:#9B3CC3"/>
		<stop  offset="0.7477" style="stop-color:#B75D9D"/>
		<stop  offset="0.8123" style="stop-color:#CC7680"/>
		<stop  offset="0.8762" style="stop-color:#DC886C"/>
		<stop  offset="0.9391" style="stop-color:#E5935F"/>
		<stop  offset="1" style="stop-color:#E8975B"/>
	</linearGradient>
	<path class="st24" d="M90.57,59.71c9.41-5.43,24.66-5.43,34.07,0c4.17,2.41,6.49,5.48,6.96,8.63c0.59-3.95-1.73-8.02-6.96-11.04
		c-9.41-5.43-24.66-5.43-34.07,0c-5.24,3.02-7.55,7.09-6.96,11.04C84.09,65.19,86.4,62.12,90.57,59.71z"/>
	<radialGradient id="SVGID_17_" cx="70.5549" cy="53.3687" r="108.1645" gradientUnits="userSpaceOnUse">
		<stop  offset="0" style="stop-color:#E39A65"/>
		<stop  offset="0.252" style="stop-color:#A92FFB"/>
		<stop  offset="0.7357" style="stop-color:#3919BB"/>
	</radialGradient>
	<path class="st25" d="M128.35,55.4c-11.34-6.68-29.82-6.84-41.28-0.36s-11.55,17.15-0.21,23.83c11.34,6.68,29.82,6.84,41.28,0.36
		C139.6,72.75,139.69,62.08,128.35,55.4z M124.65,76.97c-3.14,1.81-6.94,3.01-10.96,3.61l-0.44-1.44c-0.18-0.58-0.71-0.98-1.32-0.98
		h-8.65c-0.61,0-1.14,0.4-1.32,0.98l-0.44,1.44c-4.01-0.6-7.81-1.8-10.95-3.61c-9.41-5.43-9.41-14.24,0-19.67
		c9.41-5.43,24.66-5.43,34.07,0C134.06,62.73,134.06,71.54,124.65,76.97z"/>
	<g>
		<path class="st8" d="M124.65,56.27c-9.41-5.43-24.66-5.43-34.07,0c-4.93,2.85-7.27,6.62-7.03,10.35c0.22-3.39,2.56-6.74,7.03-9.32
			c9.41-5.43,24.66-5.43,34.07,0c4.48,2.58,6.82,5.93,7.04,9.32C131.92,62.89,129.58,59.12,124.65,56.27z"/>
		<path class="st8" d="M128.14,78.2c-11.46,6.48-29.94,6.32-41.28-0.36c-5.4-3.18-8.2-7.26-8.42-11.37
			c-0.22,4.45,2.58,8.95,8.42,12.4c11.34,6.68,29.82,6.84,41.28,0.36c6-3.4,8.88-7.94,8.63-12.46
			C136.57,70.94,133.69,75.06,128.14,78.2z"/>
	</g>
	<path class="st26" d="M110.2,81.33h-5.17c-0.36,0-0.65-0.29-0.65-0.65v-0.09c0-0.36,0.29-0.65,0.65-0.65h5.17
		c0.36,0,0.65,0.29,0.65,0.65v0.09C110.85,81.04,110.56,81.33,110.2,81.33z"/>
	<linearGradient id="SVGID_18_" gradientUnits="userSpaceOnUse" x1="103.7977" y1="80.3913" x2="112.2023" y2="80.3913">
		<stop  offset="0" style="stop-color:#131060"/>
		<stop  offset="0.1857" style="stop-color:#141062"/>
		<stop  offset="0.2823" style="stop-color:#19106A"/>
		<stop  offset="0.3584" style="stop-color:#221078"/>
		<stop  offset="0.4238" style="stop-color:#2E0F8B"/>
		<stop  offset="0.4823" style="stop-color:#3E0FA3"/>
		<stop  offset="0.5359" style="stop-color:#510EC2"/>
		<stop  offset="0.5847" style="stop-color:#680DE5"/>
		<stop  offset="0.6071" style="stop-color:#740DF8"/>
		<stop  offset="0.6179" style="stop-color:#7A14F0"/>
		<stop  offset="0.6826" style="stop-color:#9B3CC3"/>
		<stop  offset="0.7477" style="stop-color:#B75D9D"/>
		<stop  offset="0.8123" style="stop-color:#CC7680"/>
		<stop  offset="0.8762" style="stop-color:#DC886C"/>
		<stop  offset="0.9391" style="stop-color:#E5935F"/>
		<stop  offset="1" style="stop-color:#E8975B"/>
	</linearGradient>
	<path class="st27" d="M110.2,79.93h-5.17c-0.36,0-0.65,0.29-0.65,0.65v0.09c0,0.06,0.02,0.12,0.04,0.17
		c0.08-0.27,0.32-0.48,0.62-0.48h5.17c0.3,0,0.54,0.21,0.62,0.48c0.02-0.06,0.04-0.11,0.04-0.17v-0.09
		C110.85,80.22,110.56,79.93,110.2,79.93z"/>
	<g>
		<path class="st17" d="M108.4,127.17c-0.63,2.39-3.08,3.8-5.47,3.17c-2.39-0.63-3.8-3.08-3.17-5.47c0.63-2.39,2.88-3.06,5.27-2.43
			C107.42,123.09,109.04,124.79,108.4,127.17z"/>
		<path class="st17" d="M111.92,122.47c-0.9,0.88-2.05,0.77-2.81-0.02c-0.76-0.78-0.85-1.93,0.05-2.81c0.9-0.88,2.61-1.31,3.37-0.53
			C113.29,119.89,112.82,121.59,111.92,122.47z"/>
		<path class="st17" d="M107.25,118.73c-0.22,1.24-1.22,1.82-2.3,1.62c-1.08-0.19-1.82-1.08-1.6-2.32c0.22-1.24,1.36-2.59,2.44-2.39
			C106.86,115.83,107.47,117.49,107.25,118.73z"/>
		<path class="st17" d="M101.49,118.16c0.48,1.16-0.06,2.19-1.07,2.6c-1.01,0.42-2.11,0.07-2.59-1.1c-0.48-1.16-0.24-2.91,0.77-3.33
			C99.61,115.92,101.01,116.99,101.49,118.16z"/>
	</g>
</g>
<path class="st28" d="M109.44,80.63c0,0,15.64-5.24,9.31-23.21c-6.33-17.97-18.66-23.45-13.7-37.82c0,0-7.78,11.64-0.51,27.38
	c7.27,15.75,8.87,13.94,8.78,21.47c-0.1,8.95-7.33,12.18-7.33,12.18H109.44z"/>
<path class="st28" d="M110.85,22.09c0,0-1.63-10.75,8.46-21.58c0,0-8.92,19.92-6,29.75C113.3,30.26,110.95,24.01,110.85,22.09z"/>
</svg>
