<?xml version="1.0" encoding="utf-8"?>
<!-- Generator: Adobe Illustrator 23.0.0, SVG Export Plug-In . SVG Version: 6.00 Build 0)  -->
<svg version="1.1" id="Layer_1" xmlns="http://www.w3.org/2000/svg" xmlns:xlink="http://www.w3.org/1999/xlink" x="0px" y="0px"
	 viewBox="0 0 3475.15 2708.69" style="enable-background:new 0 0 3475.15 2708.69;" xml:space="preserve">
<style type="text/css">
	.st0{fill:#ECF3FE;}
	.st1{fill:#DFE5EA;}
	.st2{fill:#5B97EF;}
	.st3{fill:#FFFFFF;}
	.st4{fill:#E4ECF9;}
	.st5{fill:#3B82F4;}
	.st6{opacity:0.29;fill:#474747;}
	.st7{fill:#F4B545;}
	.st8{opacity:0.1;fill:#232323;}
	.st9{fill:#46C1AA;}
	.st10{fill:#52D1BD;}
	.st11{fill:#3CAF99;}
	.st12{fill:#727272;}
	.st13{fill:#302F2F;}
	.st14{fill:#F4B698;}
	.st15{opacity:0.28;}
	.st16{fill:#E29586;}
	.st17{fill:#565656;}
	.st18{opacity:0.2;fill:#363636;}
	.st19{fill:#EEEEEE;}
	.st20{fill:#FFDCA4;}
	.st21{fill:#E09F36;}
	.st22{fill:#F4CB95;}
	.st23{fill:#D8A471;}
	.st24{fill:#EDC28E;}
	.st25{fill:#E5B67F;}
	.st26{fill:#CC8E2B;}
	.st27{fill:#E29D2D;}
	.st28{fill:#4786D1;}
</style>
<g>
	<g>
		<g>
			<path class="st0" d="M1173.28,509.71c29.36-62.81,66.6-123.45,113.35-180.64c367.4-449.45,1089.34-411.59,1512.66-49.29
				c469.49,401.8,426.08,1078.04,416.48,1193.58c-33.38,401.95-242.07,1056.24-722.08,1189.53
				c-222.99,61.92-435.77-7.71-621.41-136.87c-146.6-102.01-339.91-92.49-479.84,27.09c-52.93,45.23-111.93,83.46-177.48,110.54
				c-148.34,61.28-280.4,44.86-337.6,37.03C431.49,2639.6-4.07,2131.95,0.03,1657.28C4.74,1112.59,587.67,694.8,1173.28,509.71z"/>
			<g>
				<path class="st1" d="M2823.92,1228.38v1070.88c0,1.3-0.06,2.6-0.12,3.97c0,0.62-0.06,1.24-0.12,1.86c0,0.56-0.06,1.18-0.13,1.8
					c0,0.25-0.06,0.5-0.06,0.74c-0.06,0.44-0.13,0.81-0.19,1.18c-0.06,0.93-0.25,1.86-0.37,2.79c-0.12,0.87-0.31,1.8-0.5,2.67
					c-0.06,0.43-0.19,0.87-0.31,1.3c0,0.31-0.06,0.68-0.19,0.99c-0.06,0.43-0.19,0.87-0.31,1.3c-0.19,0.81-0.44,1.61-0.62,2.36
					c0,0.12-0.06,0.31-0.13,0.43c-0.43,1.37-0.81,2.73-1.3,4.03c0,0.06,0,0.13-0.06,0.19c-0.25,0.68-0.5,1.36-0.74,1.99
					c-0.25,0.62-0.5,1.18-0.68,1.74c-0.06,0.19-0.19,0.37-0.19,0.5c-0.74,1.68-1.49,3.41-2.36,5.02c-0.25,0.5-0.56,1.12-0.87,1.68
					c-0.31,0.56-0.62,1.05-0.93,1.61c-0.31,0.5-0.56,1.05-0.93,1.55c-0.62,1.05-1.3,2.11-1.99,3.1c-0.43,0.68-0.87,1.24-1.24,1.86
					c-1.05,1.36-2.05,2.73-3.16,4.03c-0.81,0.99-1.61,1.92-2.42,2.79c-0.81,0.93-1.67,1.8-2.54,2.67c-0.37,0.44-0.81,0.81-1.24,1.24
					c-0.37,0.37-0.74,0.74-1.18,1.05c-0.43,0.43-0.93,0.87-1.43,1.3c-0.12,0.12-0.31,0.25-0.44,0.37c-1.18,1.05-2.42,2.05-3.66,2.98
					c-0.13,0.06-0.25,0.19-0.37,0.31c-0.99,0.68-1.99,1.43-3.04,2.11c-0.37,0.25-0.68,0.5-0.99,0.68c-0.56,0.37-1.12,0.74-1.67,1.06
					c-0.43,0.31-0.87,0.56-1.37,0.81c-0.5,0.31-0.99,0.62-1.49,0.87c-3.47,1.99-7.13,3.66-10.92,5.02
					c-0.25,0.06-0.43,0.19-0.68,0.25c-0.25,0.06-0.56,0.19-0.81,0.25c-0.87,0.31-1.74,0.62-2.67,0.87c-1.55,0.5-3.1,0.87-4.65,1.24
					c-0.81,0.19-1.61,0.37-2.42,0.56c-0.5,0.12-1.05,0.19-1.55,0.25c-0.62,0.13-1.3,0.25-1.92,0.37c-0.12,0-0.19,0-0.25,0.06
					c-0.5,0.06-0.99,0.12-1.55,0.19c-0.25,0-0.5,0.06-0.74,0.06c-0.43,0.06-0.93,0.12-1.36,0.18c-0.25,0-0.5,0.06-0.81,0.06
					c-0.93,0.06-1.92,0.13-2.86,0.19c-1.36,0.06-2.73,0.12-4.09,0.12H855.37c-1.36,0-2.73-0.06-4.09-0.12
					c-0.93-0.06-1.92-0.12-2.85-0.19c-1.05-0.06-2.11-0.19-3.16-0.37c-0.62-0.06-1.24-0.12-1.8-0.25c-1.49-0.19-2.98-0.5-4.4-0.81
					c-0.43-0.06-0.81-0.19-1.24-0.31c-1.55-0.37-3.1-0.74-4.65-1.24c-0.93-0.31-1.8-0.56-2.67-0.87c-4.16-1.43-8.19-3.23-12.04-5.27
					c-0.93-0.56-1.86-1.12-2.79-1.68c-1.05-0.62-2.11-1.3-3.1-1.99c-6.14-4.16-11.6-9.12-16.32-14.83c-1.12-1.3-2.17-2.67-3.16-4.09
					c-3.41-4.72-6.27-9.8-8.5-15.26c-0.5-1.24-0.99-2.61-1.49-3.91c-0.5-1.3-0.87-2.67-1.3-4.03c-0.37-1.37-0.74-2.73-1.05-4.09
					c-0.31-1.3-0.56-2.54-0.81-3.85c-0.06-0.18-0.06-0.43-0.12-0.62c-0.19-1.24-0.37-2.54-0.5-3.78c-0.06-0.06-0.06-0.19-0.06-0.31
					c-0.12-0.99-0.19-1.92-0.25-2.91c-0.19-1.92-0.25-3.85-0.25-5.83V1228.38c0-9.18,1.61-17.99,4.59-26.18
					c4.72-12.97,12.84-24.32,23.33-32.94c0.13-0.12,0.31-0.25,0.5-0.37l3.97-3.04c12.47-8.87,27.73-14.08,44.23-14.08h1891.94
					c1.86,0,3.66,0.06,5.46,0.25c0.31-0.06,0.68,0,0.99,0.06c1.74,0.12,3.54,0.31,5.21,0.56c0.37,0.06,0.81,0.12,1.18,0.19
					c1.49,0.25,2.98,0.56,4.4,0.93c0.37,0.06,0.74,0.12,1.12,0.25c1.8,0.43,3.54,0.93,5.27,1.49c1.61,0.5,3.29,1.12,4.84,1.74
					c2.23,0.87,4.4,1.92,6.51,3.04c1.18,0.56,2.36,1.18,3.47,1.86c1.99,1.12,3.91,2.36,5.71,3.72c0.06-0.06,0.06,0,0.06,0l3.97,3.04
					c0.19,0.13,0.37,0.25,0.5,0.37c1.05,0.81,1.99,1.68,2.92,2.54c0.74,0.62,1.43,1.3,2.11,1.99c2.11,2.05,4.09,4.22,5.96,6.58
					c0.87,1.05,1.67,2.11,2.42,3.16c3.23,4.4,5.96,9.18,8.13,14.27c0.62,1.37,1.18,2.79,1.74,4.22c0,0.06,0.06,0.12,0.06,0.19
					c0.87,2.3,1.55,4.65,2.17,7.01c0.31,1.18,0.56,2.3,0.81,3.47c0.19,0.93,0.37,1.8,0.5,2.73c0.18,0.93,0.31,1.86,0.43,2.79
					c0.19,1.12,0.31,2.23,0.37,3.35c0.12,0.93,0.19,1.92,0.19,2.85C2823.86,1225.71,2823.92,1227.08,2823.92,1228.38z"/>
				<path class="st2" d="M2819.33,1202.2H783.34c4.72-12.97,12.84-24.32,23.33-32.94c0.13-0.12,0.31-0.25,0.5-0.37l3.97-3.04
					l943.27-716.03c27.73-21.09,66.13-21.09,93.86,0l943.21,716.03c0.06-0.06,0.06,0,0.06,0l3.97,3.04c0.19,0.13,0.37,0.25,0.5,0.37
					c1.05,0.81,1.99,1.68,2.92,2.54c0.74,0.62,1.43,1.3,2.11,1.99c2.11,2.05,4.09,4.22,5.96,6.58c0.87,1.05,1.67,2.11,2.42,3.16
					c3.23,4.4,5.96,9.18,8.13,14.27c0.62,1.37,1.18,2.79,1.74,4.22C2819.27,1202.08,2819.33,1202.14,2819.33,1202.2z"/>
				<path class="st3" d="M2677.08,2320.12H900.34V708c0-75.74,61.4-137.15,137.15-137.15h1502.44c75.74,0,137.15,61.4,137.15,137.15
					V2320.12z"/>
				<path class="st4" d="M2441.48,957.92H1135.94c-18.29,0-33.26-14.96-33.26-33.25v-14.14c0-18.29,14.97-33.25,33.26-33.25h1305.54
					c18.29,0,33.25,14.96,33.25,33.25v14.14C2474.74,942.96,2459.77,957.92,2441.48,957.92z"/>
				<path class="st4" d="M2441.48,1130.22H1135.94c-18.29,0-33.26-14.96-33.26-33.25v-14.14c0-18.29,14.97-33.26,33.26-33.26
					h1305.54c18.29,0,33.25,14.97,33.25,33.26v14.14C2474.74,1115.25,2459.77,1130.22,2441.48,1130.22z"/>
				<path class="st4" d="M2441.48,1302.51H1135.94c-18.29,0-33.26-14.96-33.26-33.25v-14.14c0-18.29,14.97-33.25,33.26-33.25
					h1305.54c18.29,0,33.25,14.96,33.25,33.25v14.14C2474.74,1287.54,2459.77,1302.51,2441.48,1302.51z"/>
				<path class="st4" d="M2441.48,1474.8H1135.94c-18.29,0-33.26-14.97-33.26-33.26v-14.14c0-18.29,14.97-33.25,33.26-33.25h1305.54
					c18.29,0,33.25,14.96,33.25,33.25v14.14C2474.74,1459.83,2459.77,1474.8,2441.48,1474.8z"/>
				<path class="st4" d="M2441.48,1647.09H1135.94c-18.29,0-33.26-14.96-33.26-33.25v-14.14c0-18.29,14.97-33.25,33.26-33.25
					h1305.54c18.29,0,33.25,14.96,33.25,33.25v14.14C2474.74,1632.13,2459.77,1647.09,2441.48,1647.09z"/>
				<path class="st5" d="M1801.37,1792.54v0.06c-2.98,3.23-6.51,6.2-10.55,8.69l-931.24,574.58h-4.22c-7.75,0-15.2-1.12-22.21-3.29
					c-0.99-0.31-1.99-0.62-2.92-0.93c-12.22-4.22-23.08-11.48-31.58-20.91c-0.81-0.87-1.61-1.8-2.42-2.79
					c-2.36-2.79-4.47-5.83-6.39-9c-0.68-1.05-1.24-2.11-1.86-3.16c-0.56-1.12-1.18-2.23-1.67-3.35
					c-4.84-10.05-7.57-21.28-7.57-33.19V1228.38c0-9.18,1.61-17.99,4.59-26.18c4.72-12.97,12.84-24.32,23.33-32.94
					c0.13-0.12,0.31-0.25,0.5-0.37l3.97-3.04c12.47-8.87,27.73-14.08,44.23-14.08h17.49l81.77,50.44l753.75,465.09l28.35,17.49
					l54.1,33.38c4.03,2.48,7.57,5.46,10.55,8.68v0.06C1818.18,1745.33,1818.18,1774.18,1801.37,1792.54z"/>
				<path class="st5" d="M2823.92,1228.38v1070.88c0,1.3-0.06,2.6-0.12,3.97c0,0.62-0.06,1.24-0.12,1.86c0,0.56-0.06,1.18-0.13,1.8
					c0,0.25-0.06,0.5-0.06,0.74c-0.06,0.44-0.13,0.81-0.19,1.18c-0.06,0.93-0.25,1.86-0.37,2.79c-0.12,0.87-0.31,1.8-0.5,2.67
					c0,0.12-0.06,0.31-0.06,0.43c-0.06,0.25-0.12,0.56-0.25,0.87c0,0.31-0.06,0.68-0.19,0.99c-0.06,0.43-0.19,0.87-0.31,1.3
					c-0.19,0.81-0.37,1.55-0.62,2.36c0,0.12-0.06,0.31-0.13,0.43c-0.37,1.37-0.81,2.73-1.3,4.03c0,0.06,0,0.13-0.06,0.19
					c-0.25,0.68-0.44,1.3-0.74,1.99c-0.19,0.56-0.44,1.12-0.68,1.74c-0.06,0.12-0.13,0.31-0.19,0.5c-0.74,1.68-1.49,3.41-2.36,5.02
					c-0.25,0.5-0.56,1.12-0.87,1.68c-0.31,0.56-0.62,1.05-0.93,1.61c-0.31,0.5-0.56,1.05-0.93,1.55c-0.62,1.05-1.3,2.11-1.99,3.1
					c-0.43,0.68-0.87,1.24-1.24,1.86c-1.05,1.43-2.11,2.73-3.16,4.03c-0.81,0.99-1.61,1.92-2.42,2.79c-0.81,0.93-1.67,1.8-2.54,2.67
					c-0.37,0.44-0.81,0.81-1.24,1.24c-0.37,0.37-0.74,0.74-1.18,1.05c-0.43,0.43-0.93,0.87-1.43,1.3c-0.12,0.12-0.31,0.25-0.44,0.37
					c-1.18,1.05-2.42,2.05-3.66,2.98c-0.13,0.06-0.25,0.19-0.37,0.31c-0.99,0.68-1.99,1.43-3.04,2.11c-0.37,0.25-0.68,0.5-0.99,0.68
					c-0.56,0.37-1.12,0.74-1.67,1.06c-0.43,0.31-0.87,0.56-1.37,0.81c-0.5,0.31-0.99,0.62-1.49,0.87
					c-3.47,1.99-7.13,3.66-10.92,5.02c-0.25,0.06-0.5,0.19-0.68,0.25c-0.25,0.06-0.56,0.19-0.81,0.25
					c-0.87,0.31-1.74,0.62-2.67,0.87c-1.55,0.5-3.1,0.87-4.65,1.24c-0.81,0.19-1.61,0.37-2.42,0.56c-0.5,0.12-1.05,0.19-1.55,0.25
					c-0.62,0.13-1.3,0.25-1.92,0.37h-0.19c-0.56,0.06-1.12,0.19-1.61,0.25c-0.25,0-0.5,0.06-0.74,0.06
					c-0.43,0.06-0.87,0.12-1.36,0.18c-0.25,0-0.5,0.06-0.81,0.06c-0.93,0.06-1.92,0.13-2.86,0.19c-1.36,0.06-2.73,0.12-4.09,0.12
					h-4.22l-931.24-574.58c-4.03-2.48-7.57-5.46-10.48-8.69v-0.06c-16.87-18.43-16.87-47.15,0-65.64v-0.06
					c2.92-3.22,6.45-6.2,10.48-8.68l54.03-33.38l28.35-17.49l753.81-465.09l81.76-50.44h17.49c1.86,0,3.66,0.06,5.46,0.25
					c0.31-0.06,0.68,0,0.99,0.06c1.74,0.12,3.54,0.31,5.21,0.56c0.37,0.06,0.81,0.12,1.18,0.19c1.49,0.25,2.98,0.56,4.4,0.93
					c0.37,0.06,0.74,0.12,1.12,0.25c1.8,0.43,3.54,0.93,5.27,1.49c1.61,0.5,3.29,1.12,4.84,1.74c2.23,0.87,4.4,1.92,6.51,3.04
					c1.18,0.56,2.36,1.18,3.47,1.86c1.99,1.12,3.91,2.36,5.71,3.72c0.06-0.06,0.06,0,0.06,0l3.97,3.04c0.19,0.13,0.37,0.25,0.5,0.37
					c1.05,0.81,1.99,1.68,2.92,2.54c0.74,0.62,1.43,1.3,2.11,1.99c2.11,2.05,4.09,4.22,5.96,6.58c0.87,1.05,1.67,2.11,2.42,3.16
					c3.23,4.4,5.96,9.18,8.13,14.27c0.62,1.37,1.18,2.79,1.74,4.22c0,0.06,0.06,0.12,0.06,0.19c0.87,2.3,1.55,4.65,2.17,7.01
					c0.31,1.18,0.56,2.3,0.81,3.47c0.19,0.93,0.37,1.8,0.5,2.73c0.18,0.93,0.31,1.86,0.43,2.79c0.19,1.12,0.31,2.23,0.37,3.35
					c0.12,0.93,0.19,1.92,0.19,2.85C2823.86,1225.71,2823.92,1227.08,2823.92,1228.38z"/>
				<path class="st6" d="M2823.92,2284.76v11.14c0,44.16-34.31,79.97-76.62,79.97H855.37c-42.31,0-76.62-35.81-76.62-79.97v-11.14
					l973.11-640.24c30.21-19.88,68.68-19.88,98.89,0L2823.92,2284.76z"/>
				<path class="st2" d="M2823.92,2288.59v10.67c0,42.31-34.31,76.61-76.62,76.61H855.37c-42.31,0-76.62-34.31-76.62-76.61v-10.67
					l973.11-613.36c30.21-19.04,68.68-19.04,98.89,0L2823.92,2288.59z"/>
				<path class="st5" d="M1705.31,785.63h-569.37c-18.29,0-33.26-14.96-33.26-33.25v-14.14c0-18.29,14.97-33.25,33.26-33.25h569.37
					c18.29,0,33.25,14.96,33.25,33.25v14.14C1738.56,770.67,1723.6,785.63,1705.31,785.63z"/>
			</g>
			<path class="st7" d="M1042.67,2228.47c-0.17,0-0.34-0.01-0.51-0.01c-22.68-0.9-45.51-2.86-67.86-5.83
				c-6.88-0.91-11.71-7.22-10.8-14.09c0.91-6.88,7.23-11.75,14.1-10.79c21.59,2.86,43.64,4.75,65.56,5.63
				c6.93,0.27,12.32,6.11,12.05,13.04C1054.93,2223.17,1049.37,2228.47,1042.67,2228.47z M1109.59,2228.16
				c-6.65,0-12.2-5.23-12.53-11.95c-0.34-6.93,5-12.82,11.93-13.15c21.65-1.05,43.73-3.06,65.62-5.99
				c6.89-0.94,13.19,3.91,14.11,10.78c0.92,6.88-3.91,13.19-10.78,14.11c-22.59,3.02-45.38,5.1-67.73,6.19
				C1110,2228.15,1109.79,2228.16,1109.59,2228.16z M910.07,2210.83c-0.93,0-1.88-0.11-2.82-0.32
				c-22.02-5.06-44.09-11.24-65.61-18.38c-6.58-2.18-10.15-9.29-7.97-15.87s9.3-10.15,15.87-7.96
				c20.77,6.89,42.08,12.86,63.33,17.74c6.76,1.56,10.98,8.29,9.42,15.05C920.96,2206.89,915.79,2210.83,910.07,2210.83z
				 M1242.24,2210.58c-5.79,0-11-4.03-12.27-9.92c-1.46-6.78,2.86-13.45,9.64-14.91c21.29-4.58,42.83-10.06,64-16.3
				c6.65-1.95,13.64,1.84,15.59,8.5c1.96,6.65-1.84,13.63-8.5,15.59c-21.77,6.42-43.91,12.05-65.82,16.76
				C1244,2210.49,1243.11,2210.58,1242.24,2210.58z M1370.7,2172.87c-5.09,0-9.88-3.12-11.77-8.17c-2.42-6.5,0.88-13.73,7.38-16.15
				c20.52-7.65,41.08-16.13,61.14-25.22c6.31-2.87,13.76-0.06,16.62,6.25c2.86,6.32,0.06,13.76-6.26,16.62
				c-20.57,9.32-41.68,18.03-62.72,25.87C1373.64,2172.62,1372.16,2172.87,1370.7,2172.87z M782.99,2168.9
				c-1.65,0-3.33-0.33-4.94-1.01c-20.33-8.71-40.98-18.48-61.4-29.04c-6.16-3.18-8.57-10.76-5.39-16.92
				c3.19-6.15,10.77-8.58,16.92-5.38c19.88,10.27,39.99,19.78,59.76,28.25c6.37,2.73,9.32,10.12,6.59,16.49
				C792.5,2166.05,787.86,2168.9,782.99,2168.9z M1492.67,2117.57c-4.46,0-8.79-2.38-11.06-6.58c-3.3-6.1-1.03-13.72,5.07-17.02
				c17.66-9.55,34.46-19.41,49.93-29.3c5.83-3.72,13.6-2.03,17.34,3.82c3.73,5.84,2.02,13.61-3.82,17.34
				c-15.99,10.22-33.32,20.39-51.51,30.23C1496.74,2117.09,1494.69,2117.57,1492.67,2117.57z M663.98,2107.47
				c-2.22,0-4.47-0.59-6.5-1.82c-19.45-11.8-38.55-24.31-56.78-37.17c-5.67-4-7.02-11.83-3.02-17.5c4-5.66,11.83-7,17.5-3.02
				c17.76,12.53,36.37,24.71,55.33,36.21c5.93,3.6,7.82,11.32,4.22,17.25C672.36,2105.32,668.22,2107.47,663.98,2107.47z
				 M554.6,2030.13c-2.81,0-5.64-0.94-7.98-2.87c-17.02-14.02-33.33-28.58-48.52-43.29c-1.24-0.87-2.31-1.96-3.15-3.18
				c-3.96-4.88-3.71-12.07,0.78-16.67c4.16-4.27,10.62-4.93,15.5-1.96c20.34,4.55,40.98,8,61.42,10.27
				c6.89,0.76,11.86,6.97,11.1,13.86c-0.76,6.9-6.91,11.88-13.86,11.1c-7.76-0.86-15.55-1.88-23.34-3.06
				c5.27,4.57,10.62,9.1,16.05,13.57c5.35,4.41,6.11,12.32,1.7,17.68C561.82,2028.57,558.22,2030.13,554.6,2030.13z M638.1,2000.87
				c-6.88,0-12.49-5.55-12.55-12.45c-0.06-6.93,5.51-12.6,12.44-12.67c17.49-0.15,35.15-1.16,52.51-3.01
				c3.56-0.38,7.75-0.83,12.95-1.45c6.84-0.91,13.13,4.09,13.96,10.97c0.82,6.89-4.09,13.14-10.98,13.96
				c-5.32,0.64-9.62,1.1-12.75,1.43c-18.68,1.98-37.17,3.04-55.46,3.21C638.18,2000.87,638.14,2000.87,638.1,2000.87z
				 M771.15,1985.35c-5.81,0-11.03-4.06-12.27-9.97c-1.43-6.78,2.91-13.44,9.7-14.87c21.87-4.61,43.34-10.14,63.81-16.46
				c6.65-2.02,13.66,1.68,15.7,8.3c2.05,6.63-1.67,13.65-8.3,15.7c-21.2,6.53-43.42,12.27-66.04,17.03
				C772.87,1985.27,772,1985.35,771.15,1985.35z M441.04,1967.59c-1.38,0-2.78-0.23-4.16-0.71c-21.29-7.48-42.52-16.29-63.1-26.15
				c-6.25-3.01-8.89-10.5-5.89-16.76c3-6.25,10.5-8.87,16.75-5.89c19.75,9.48,40.12,17.93,60.56,25.11
				c6.54,2.3,9.98,9.47,7.68,16.01C451.07,1964.36,446.22,1967.59,441.04,1967.59z M899.03,1945.6c-4.87,0-9.5-2.85-11.54-7.6
				c-2.74-6.37,0.21-13.75,6.58-16.49c20.69-8.89,40.3-18.82,58.29-29.51c5.95-3.53,13.66-1.58,17.21,4.38
				c3.54,5.96,1.58,13.67-4.38,17.21c-18.93,11.25-39.52,21.68-61.2,31C902.36,1945.27,900.68,1945.6,899.03,1945.6z
				 M459.15,1936.46c-3.58,0-7.14-1.53-9.62-4.48c-15.09-17.96-28.86-36.41-40.93-54.83c-3.8-5.8-2.18-13.59,3.62-17.38
				c5.8-3.8,13.58-2.18,17.38,3.62c11.53,17.59,24.7,35.24,39.15,52.45c4.46,5.31,3.77,13.23-1.54,17.69
				C464.86,1935.49,462,1936.46,459.15,1936.46z M320.49,1909.82c-2.26,0-4.54-0.61-6.6-1.88c-19.27-11.92-38.13-25.02-56.06-38.95
				c-5.48-4.25-6.48-12.14-2.22-17.61s12.14-6.47,17.62-2.22c17.24,13.37,35.37,25.97,53.89,37.42c5.9,3.65,7.72,11.39,4.07,17.28
				C328.8,1907.71,324.69,1909.82,320.49,1909.82z M1013.44,1876.78c-3.58,0-7.14-1.53-9.62-4.48c-4.46-5.31-3.77-13.23,1.54-17.69
				c16.89-14.18,32.08-29.62,45.15-45.89c4.35-5.4,12.26-6.26,17.65-1.92c5.4,4.34,6.27,12.24,1.92,17.66
				c-14.09,17.53-30.44,34.15-48.58,49.38C1019.15,1875.81,1016.28,1876.78,1013.44,1876.78z M214.89,1827.86
				c-3.13,0-6.27-1.16-8.71-3.51c-16.4-15.78-32.08-32.58-46.58-49.93c-4.45-5.32-3.74-13.24,1.58-17.68
				c5.32-4.45,13.24-3.75,17.68,1.58c13.93,16.65,28.98,32.78,44.73,47.94c5,4.8,5.15,12.75,0.34,17.75
				C221.47,1826.56,218.18,1827.86,214.89,1827.86z M386.44,1824.43c-4.73,0-9.26-2.68-11.39-7.26c-9.96-21.4-17.95-43.2-23.75-64.8
				c-1.8-6.7,2.17-13.59,8.87-15.38c6.7-1.84,13.58,2.18,15.38,8.87c5.43,20.2,12.92,40.62,22.26,60.71
				c2.93,6.29,0.2,13.76-6.09,16.69C390.01,1824.05,388.21,1824.43,386.44,1824.43z M1096.25,1772.91c-1.87,0-3.76-0.42-5.55-1.3
				c-6.22-3.08-8.77-10.6-5.69-16.82c8.82-17.85,15.9-36.91,21.04-56.65l0.91-3.55c1.68-6.73,8.51-10.83,15.22-9.13
				c6.73,1.68,10.82,8.5,9.14,15.23l-0.96,3.78c-5.58,21.4-13.26,42.07-22.84,61.44
				C1105.33,1770.34,1100.87,1772.91,1096.25,1772.91z M129.21,1725.29c-4.07,0-8.06-1.98-10.48-5.63
				c-12.57-18.96-24.16-38.82-34.45-59.04c-3.15-6.18-0.69-13.74,5.49-16.89c6.17-3.16,13.74-0.69,16.88,5.49
				c9.86,19.36,20.97,38.4,33.01,56.57c3.83,5.78,2.25,13.57-3.53,17.4C134,1724.61,131.6,1725.29,129.21,1725.29z M352.45,1695.83
				c-6.56,0-12.09-5.1-12.52-11.74c-0.46-7.15-0.7-14.41-0.7-21.6c0-15.89,1.15-31.96,3.42-47.77c0.99-6.87,7.31-11.63,14.21-10.65
				c6.86,0.99,11.63,7.35,10.65,14.21c-2.1,14.63-3.17,29.5-3.17,44.2c0,6.65,0.22,13.37,0.65,19.97
				c0.45,6.93-4.8,12.89-11.72,13.34C353,1695.82,352.72,1695.83,352.45,1695.83z M1128.61,1644.01c-0.19,0-0.37-0.01-0.55-0.01
				c-6.93-0.3-12.3-6.16-12-13.09c0.21-4.85,0.31-9.7,0.31-14.55c0-16.46-1.2-33.24-3.58-49.91c-0.98-6.87,3.79-13.22,10.66-14.2
				c6.86-0.98,13.22,3.79,14.2,10.66c2.54,17.83,3.83,35.81,3.83,53.44c0,5.21-0.11,10.42-0.33,15.64
				C1140.85,1638.73,1135.29,1644.01,1128.61,1644.01z M68.56,1606.22c-5.09,0-9.88-3.12-11.76-8.17
				c-7.89-21.14-14.71-43.09-20.29-65.25c-1.69-6.73,2.39-13.55,9.11-15.24c6.73-1.67,13.55,2.39,15.24,9.12
				c5.35,21.26,11.89,42.32,19.46,62.59c2.43,6.5-0.87,13.73-7.37,16.16C71.5,1605.96,70.02,1606.22,68.56,1606.22z M370.87,1564.07
				c-1.34,0-2.7-0.21-4.04-0.67c-6.56-2.23-10.08-9.36-7.85-15.93c7.18-21.12,16.31-42.39,27.15-63.24
				c3.21-6.15,10.78-8.54,16.93-5.34c6.15,3.2,8.55,10.78,5.34,16.94c-10.25,19.71-18.88,39.81-25.66,59.73
				C380.99,1560.77,376.1,1564.07,370.87,1564.07z M1110.12,1512.08c-5.3,0-10.23-3.38-11.95-8.71
				c-6.58-20.43-14.94-40.6-24.83-59.94c-3.16-6.18-0.71-13.74,5.46-16.9c6.17-3.16,13.74-0.71,16.9,5.46
				c10.51,20.54,19.38,41.97,26.38,63.67c2.13,6.6-1.5,13.68-8.1,15.81C1112.69,1511.88,1111.39,1512.08,1110.12,1512.08z
				 M35.83,1476.61c-6.15,0-11.53-4.53-12.42-10.79c-3.15-22.24-5.21-45.1-6.12-67.94c-0.27-6.93,5.12-12.77,12.04-13.04
				c7.11-0.24,12.77,5.12,13.05,12.04c0.88,22,2.86,44.01,5.89,65.41c0.97,6.87-3.81,13.22-10.67,14.19
				C37,1476.56,36.41,1476.61,35.83,1476.61z M432.12,1445.43c-2.5,0-5.02-0.74-7.22-2.29c-5.67-3.99-7.03-11.82-3.04-17.49
				c13.06-18.55,27.51-36.52,42.94-53.42c4.68-5.12,12.62-5.48,17.74-0.81c5.12,4.68,5.48,12.62,0.8,17.74
				c-14.72,16.12-28.5,33.26-40.95,50.93C439.95,1443.57,436.07,1445.43,432.12,1445.43z M1049.43,1393.3
				c-3.87,0-7.68-1.78-10.14-5.14c-12.88-17.58-27.16-34.08-42.44-49.04c-4.95-4.85-5.04-12.8-0.19-17.76
				c4.85-4.95,12.79-5.05,17.76-0.19c16.26,15.91,31.45,33.46,45.14,52.15c4.1,5.6,2.88,13.45-2.71,17.55
				C1054.6,1392.51,1052,1393.3,1049.43,1393.3z M522.28,1346.77c-3.56,0-7.1-1.51-9.58-4.44c-4.48-5.29-3.83-13.21,1.46-17.7
				c17.67-14.98,36.25-28.69,55.21-40.76c5.85-3.73,13.62-2,17.33,3.85c3.72,5.85,2,13.61-3.85,17.33
				c-18.01,11.46-35.65,24.49-52.46,38.74C528.03,1345.79,525.14,1346.77,522.28,1346.77z M30.43,1342.98
				c-0.24,0-0.49-0.01-0.73-0.02c-6.92-0.4-12.21-6.33-11.82-13.26c1.32-23.04,3.77-45.86,7.29-67.83
				c1.09-6.84,7.52-11.51,14.38-10.42c6.85,1.09,11.51,7.53,10.42,14.38c-3.38,21.14-5.73,43.12-7.01,65.31
				C42.57,1337.82,37.04,1342.98,30.43,1342.98z M953.87,1300.31c-2.43,0-4.88-0.7-7.04-2.17c-18.09-12.27-37.11-22.63-56.53-30.79
				c-6.39-2.69-9.4-10.05-6.71-16.44c2.69-6.4,10.07-9.4,16.44-6.71c20.94,8.81,41.43,19.96,60.89,33.16
				c5.74,3.89,7.24,11.7,3.34,17.44C961.85,1298.38,957.89,1300.31,953.87,1300.31z M635.06,1275.42c-4.83,0-9.43-2.8-11.5-7.51
				c-2.79-6.35,0.1-13.76,6.44-16.55c21.53-9.46,43.52-16.95,65.35-22.26c6.74-1.65,13.53,2.49,15.17,9.23
				c1.64,6.74-2.5,13.53-9.24,15.17c-20.4,4.96-40.99,11.98-61.18,20.85C638.46,1275.08,636.74,1275.42,635.06,1275.42z
				 M831.16,1249.22c-0.75,0-1.51-0.07-2.27-0.21c-17.15-3.13-34.78-4.72-52.38-4.72c-3.55-0.06-7.71,0.07-11.56,0.22
				c-6.95,0.38-12.76-5.14-13.03-12.06c-0.27-6.93,5.13-12.77,12.06-13.03c4.17-0.16,8.64-0.08,12.53-0.24
				c19.11,0,38.24,1.72,56.88,5.13c6.82,1.25,11.34,7.79,10.1,14.61C842.39,1244.98,837.1,1249.22,831.16,1249.22z M52,1211.04
				c-1.13,0-2.27-0.15-3.41-0.47c-6.68-1.88-10.56-8.81-8.69-15.49c6.13-21.78,13.53-43.52,22-64.6c2.58-6.44,9.9-9.55,16.34-6.97
				c6.43,2.59,9.55,9.9,6.97,16.34c-8.14,20.24-15.25,41.11-21.13,62.03C62.52,1207.42,57.48,1211.04,52,1211.04z M101.76,1087.06
				c-1.98,0-4-0.47-5.87-1.47c-6.13-3.25-8.46-10.85-5.21-16.97c10.57-19.92,22.36-39.61,35.05-58.54
				c3.87-5.75,11.67-7.3,17.42-3.43c5.76,3.86,7.29,11.66,3.43,17.42c-12.21,18.21-23.56,37.15-33.72,56.31
				C110.61,1084.64,106.26,1087.06,101.76,1087.06z M176.19,975.97c-2.82,0-5.65-0.94-7.99-2.88c-5.34-4.42-6.1-12.33-1.68-17.68
				c14.36-17.38,29.81-34.33,45.92-50.38c4.91-4.89,12.87-4.88,17.76,0.03c4.9,4.91,4.88,12.86-0.03,17.76
				c-15.54,15.49-30.44,31.84-44.29,48.6C183.39,974.41,179.8,975.97,176.19,975.97z M270.91,881.48c-3.62,0-7.21-1.56-9.69-4.57
				c-4.42-5.35-3.66-13.26,1.69-17.67c17.37-14.34,35.69-28.11,54.45-40.93c5.72-3.91,13.54-2.44,17.45,3.28
				c3.91,5.73,2.44,13.54-3.28,17.45c-18.14,12.4-35.85,25.71-52.64,39.56C276.55,880.54,273.72,881.48,270.91,881.48z
				 M381.38,805.94c-4.39,0-8.66-2.31-10.96-6.42c-3.39-6.05-1.24-13.7,4.81-17.09c19.64-11.01,40.09-21.34,60.78-30.68
				c6.32-2.87,13.76-0.05,16.61,6.27c2.86,6.32,0.05,13.76-6.27,16.61c-20.03,9.05-39.82,19.04-58.84,29.7
				C385.57,805.42,383.46,805.94,381.38,805.94z M503.35,750.78c-5.17,0-10.02-3.22-11.84-8.37c-2.31-6.54,1.12-13.71,7.66-16.02
				c21.23-7.5,43.1-14.21,65-19.95c6.69-1.76,13.57,2.26,15.33,8.97c1.76,6.71-2.26,13.57-8.97,15.33
				c-21.23,5.56-42.42,12.07-62.99,19.33C506.15,750.55,504.74,750.78,503.35,750.78z"/>
			<g>
				<polygon class="st8" points="1129.58,404.08 182.2,530.48 411.89,704.7 415.48,1025.34 613.41,857.22 724.63,941.08 				"/>
				<g>
					<g>
						<polygon class="st9" points="436.15,1005.89 430.9,537.52 1150.25,384.63 						"/>
						<path class="st10" d="M434.11,686.43c3.64-1.83,716.13-301.8,716.13-301.8L202.87,511.04L434.11,686.43z"/>
						<polygon class="st11" points="512.64,746.21 436.15,1005.89 764.21,727.24 						"/>
						<polygon class="st10" points="512.64,746.21 745.3,921.64 1150.25,384.63 						"/>
					</g>
				</g>
			</g>
			<path class="st8" d="M3002.53,1267.3c-0.77-12.06-11.26-21.29-23.31-20.52l-846.57,53.81c-12.05,0.76-21.29,11.25-20.52,23.31
				l21.86,343.88c0.77,12.06,11.26,21.29,23.31,20.53l846.57-53.81c12.05-0.77,21.29-11.26,20.52-23.31L3002.53,1267.3z"/>
			<g>
				<path class="st3" d="M3025.28,1602.88l-846.57,53.81c-12.05,0.77-22.54-8.47-23.31-20.52l-21.86-343.88
					c-0.77-12.05,8.47-22.54,20.52-23.31l846.57-53.81c12.05-0.77,22.54,8.47,23.31,20.52l21.86,343.88
					C3046.57,1591.62,3037.33,1602.11,3025.28,1602.88z"/>
				<path class="st5" d="M2935.7,1318.56l-369.42,23.48c-9.53,0.61-17.83-6.7-18.43-16.23l-0.06-0.87
					c-0.61-9.53,6.7-17.83,16.23-18.43l369.42-23.48c9.53-0.61,17.83,6.7,18.43,16.23l0.06,0.87
					C2952.54,1309.66,2945.23,1317.95,2935.7,1318.56z"/>
				<path class="st0" d="M2940.63,1396.06l-369.42,23.48c-9.53,0.61-17.83-6.7-18.43-16.23l-0.06-0.87
					c-0.61-9.53,6.7-17.83,16.23-18.43l369.42-23.48c9.53-0.61,17.83,6.7,18.43,16.23l0.06,0.87
					C2957.46,1387.16,2950.16,1395.46,2940.63,1396.06z"/>
				<path class="st0" d="M2945.55,1473.57l-369.42,23.48c-9.53,0.61-17.83-6.7-18.43-16.23l-0.06-0.87
					c-0.61-9.53,6.7-17.83,16.23-18.43l369.42-23.48c9.53-0.61,17.83,6.7,18.43,16.23l0.06,0.87
					C2962.39,1464.67,2955.08,1472.96,2945.55,1473.57z"/>
				<path class="st0" d="M2950.48,1551.07l-369.42,23.48c-9.53,0.61-17.83-6.7-18.43-16.23l-0.06-0.87
					c-0.61-9.53,6.7-17.83,16.23-18.43l369.42-23.48c9.53-0.61,17.83,6.7,18.43,16.23l0.06,0.87
					C2967.32,1542.17,2960.01,1550.47,2950.48,1551.07z"/>
				<g>
					
						<ellipse transform="matrix(0.7071 -0.7071 0.7071 0.7071 -339.6811 2082.958)" class="st0" cx="2344.51" cy="1451.51" rx="163.05" ry="163.05"/>
					<g>
						<path class="st12" d="M2430.31,1551.91c-8.38,7.38-17.74,13.68-27.89,18.71c-5.14,2.57-10.48,4.8-15.99,6.65
							c-5.83,2-11.87,3.56-18.06,4.7c-5.03,0.94-10.2,1.58-15.44,1.91c-5.25,0.33-10.45,0.35-15.58,0.06
							c-23.94-1.32-46.33-9.2-65.23-21.97c8.37-18.13,23.83-32.52,42.98-39.3l0.02,0c0.01-0.02,0.03-0.02,0.05-0.02
							c3.28-1.17,6.68-2.11,10.18-2.79c0.14-0.04,0.28-0.06,0.42-0.09c3.07-0.61,6.21-1.01,9.42-1.21l27.08-1.72
							c3.2-0.2,6.37-0.2,9.49,0.01c0.14-0.01,0.28,0.01,0.43,0.04c3.56,0.23,7.05,0.73,10.47,1.48l0.03,0l0,0.02
							C2402.54,1522.66,2419.72,1534.99,2430.31,1551.91z"/>
						<path class="st13" d="M2416.73,1390.84l5.55,87.24c1.22,19.22-13.35,35.79-32.57,37.01l-82,5.21
							c-19.2,1.22-35.77-13.37-37-32.59l-5.55-87.24c-4.93-77.48,71.08-78.8,71.08-78.8s19.67-2.15,39.6,6.02
							c17.83,7.3,35.88,22.91,40.17,55.77C2416.33,1385.82,2416.57,1388.28,2416.73,1390.84z"/>
						<path class="st14" d="M2371.31,1503.37l1.63,25.65c0.69,10.87-9.28,20.45-22.16,21.27c-12.88,0.82-23.98-7.42-24.67-18.29
							l-1.63-25.65c-0.29-4.49,1.25-8.75,4.06-12.28c0.65-0.83,1.37-1.61,2.16-2.34c1.49-1.41,3.23-2.64,5.13-3.64
							c3.18-1.69,6.86-2.76,10.81-3.01c3.95-0.25,7.74,0.34,11.11,1.62c2.02,0.76,3.88,1.75,5.54,2.96
							c0.08,0.05,0.18,0.12,0.26,0.18c0.78,0.58,1.51,1.2,2.19,1.87C2368.97,1494.84,2371.03,1498.88,2371.31,1503.37z"/>
						<path class="st15" d="M2405.78,1411.36l2.37,37.36c1.67,26.25-13.68,49.83-36.5,59.9l0.63,9.85
							c-6.38,2.82-13.34,4.58-20.68,5.04l-5.01,0.32c-7.34,0.47-14.47-0.4-21.15-2.39l-0.63-9.85
							c-23.91-7.1-42.13-28.55-43.79-54.79l-2.37-37.36c-1.04-17.54,5.53-33.87,16.82-45.73c10.27-10.81,24.43-17.92,40.37-18.93
							l5.01-0.32c14.32-0.91,27.84,3.25,38.81,10.91c0,0,0,0,0.01,0C2394.35,1375.66,2404.47,1392.21,2405.78,1411.36z"/>
						<path class="st14" d="M2405.17,1401.79l2.98,46.93c0.82,12.84-2.45,25.03-8.63,35.3c-0.02,0.02-0.04,0.04-0.04,0.04
							c-1.45,2.38-3.05,4.65-4.78,6.82c-3.39,4.21-7.31,7.97-11.7,11.17c-3.52,2.56-7.31,4.77-11.36,6.57
							c-6.38,2.82-13.35,4.57-20.68,5.04l-5,0.32c-7.33,0.47-14.47-0.38-21.13-2.38c-23.92-7.1-42.14-28.54-43.81-54.8l-2.97-46.68
							c-0.04-0.65-0.06-1.3-0.08-1.95c-0.63-17.83,6.52-34.29,18.5-45.96c1.88-1.84,3.89-3.57,6.02-5.18
							c9.19-6.91,20.43-11.33,32.72-12.11l5-0.32c13.82-0.88,26.91,2.98,37.67,10.16c5.73,3.82,10.8,8.56,14.96,14.06
							c1.72,2.25,3.26,4.61,4.66,7.08C2401.87,1383.62,2404.57,1392.39,2405.17,1401.79z"/>
						<g>
							<path class="st14" d="M2431.2,1424.96c0.86,13.51-9.4,25.16-22.91,26.02l-3.11-48.92c3.39-0.22,6.67,0.27,9.68,1.33
								c0.03,0.01,0.04,0.02,0.04,0.02C2423.88,1406.57,2430.56,1414.85,2431.2,1424.96z"/>
							<path class="st16" d="M2421.88,1425.55c0.53,8.36-5.82,15.58-14.18,16.11l-1.93-30.29
								C2414.14,1410.83,2421.35,1417.18,2421.88,1425.55z"/>
						</g>
						<path class="st17" d="M2382.68,1518.35l0,0.02l-14.31,63.59c-5.03,0.94-10.2,1.58-15.44,1.91
							c-5.25,0.33-10.45,0.35-15.58,0.06l-22.25-61.27l0-0.02l12.93-0.82l0.49,0.44l21.74,19.8l19.09-22.39l0.43-0.5
							L2382.68,1518.35z"/>
						<g>
							<path class="st14" d="M2278.06,1410.13l3.11,48.92c-13.5,0.86-25.15-9.39-26.01-22.91c-0.74-11.62,6.74-21.86,17.45-25.04
								c0.37-0.11,0.75-0.22,1.13-0.3c0.2-0.04,0.4-0.08,0.61-0.12C2275.55,1410.41,2276.78,1410.21,2278.06,1410.13z"/>
							<path class="st16" d="M2264.47,1435.55c0.53,8.36,7.74,14.71,16.11,14.18l-1.93-30.29
								C2270.29,1419.98,2263.94,1427.19,2264.47,1435.55z"/>
						</g>
						<path class="st17" d="M2402.42,1570.62c-5.14,2.57-10.48,4.8-15.99,6.65l-0.36-5.61L2402.42,1570.62z"/>
						<polygon class="st18" points="2350.25,1542.07 2369.25,1553.8 2382.68,1518.35 						"/>
						<polygon class="st19" points="2382.68,1518.35 2368.85,1552.61 2350.25,1542.07 2369.76,1519.17 2372.31,1516.19 						"/>
						<polygon class="st18" points="2315.1,1522.64 2332.75,1556.12 2350.25,1542.07 						"/>
						<polygon class="st19" points="2350.25,1542.07 2333.16,1554.88 2315.1,1522.64 2325.12,1519.19 2328.02,1521.82 						"/>
						<path class="st13" d="M2416.63,1389.2c-45.36,6.18-43.64-35.32-40.17-55.77C2394.28,1340.73,2412.33,1356.34,2416.63,1389.2z"
							/>
						<path class="st13" d="M2391.08,1354.85c-1.41,2.61-15.32,31.88-43.59,33.68c-28.27,1.8-72.08,21.63-71.66,49.87
							c0.41,28.24-40.87-83.72,44.42-98.08C2405.54,1325.97,2391.08,1354.85,2391.08,1354.85z"/>
					</g>
				</g>
			</g>
			<path class="st8" d="M3078.44,1201.3l-81.25-334.86c-2.85-11.74-14.78-19.01-26.52-16.16l-824.36,200.02
				c-11.74,2.85-19.01,14.78-16.16,26.52l81.25,334.86c2.85,11.74,14.78,19.01,26.52,16.16l824.36-200.02
				C3074.01,1224.97,3081.29,1213.04,3078.44,1201.3z"/>
			<g>
				<path class="st3" d="M3080.81,1197.51l-824.36,200.02c-11.74,2.85-23.67-4.43-26.52-16.16l-81.25-334.86
					c-2.85-11.74,4.43-23.67,16.16-26.52l824.36-200.02c11.74-2.85,23.67,4.43,26.52,16.16l81.25,334.86
					C3099.82,1182.72,3092.55,1194.66,3080.81,1197.51z"/>
				<g>
					
						<ellipse transform="matrix(0.7071 -0.7071 0.7071 0.7071 -127.3382 2026.6104)" class="st20" cx="2382.67" cy="1167.02" rx="161.55" ry="161.55"/>
					<g>
						<path class="st7" d="M2415.13,1309.4c-0.91,0.22-1.77,0.43-2.65,0.54l-0.05,0.01c-27.22,5.74-54.28,2.96-78.55-6.47
							c4.69-20.45,17.86-38.46,36.39-48.97l0.05-0.01c3.06-1.75,6.28-3.29,9.61-4.56c3.05-1.19,6.23-2.22,9.53-3.02l26.59-6.45
							c3.25-0.79,6.55-1.34,9.81-1.67l0.05-0.01c3.54-0.4,7.1-0.51,10.63-0.36c15.01,0.6,29.38,5.66,41.28,14.3
							c4.53,3.25,8.7,7.09,12.44,11.29c-16.6,19.5-38.72,34.57-64.73,42.6c-1.17,0.38-2.35,0.72-3.59,1.02
							c-0.18,0.09-0.37,0.14-0.56,0.19l-0.05,0.01c-0.23,0.11-0.47,0.16-0.76,0.19c-0.18,0.09-0.42,0.15-0.67,0.16
							c-0.88,0.32-1.84,0.55-2.79,0.78l-0.67,0.16l-0.81,0.2l-0.24,0.06L2415.13,1309.4z"/>
						<path class="st21" d="M2307.77,1156.79c0,0-30.17-87.93,18.58-101.63c48.75-13.7,65.81-31.04,78.59-29.74
							c12.78,1.3,41.64,80.83,42.37,97.52C2448.06,1139.61,2307.77,1156.79,2307.77,1156.79z"/>
						<path class="st22" d="M2422.66,1225.55l6.11,25.16c2.59,10.66-5.63,21.91-18.26,24.97c-12.63,3.07-25.09-3.16-27.68-13.83
							l-6.11-25.16c-1.07-4.4-0.3-8.9,1.88-12.89c0.5-0.93,1.08-1.84,1.73-2.69c1.24-1.66,2.74-3.18,4.45-4.51
							c2.86-2.23,6.32-3.94,10.2-4.88c3.88-0.94,7.74-1.01,11.3-0.34c2.13,0.4,4.16,1.06,6.01,1.96c0.09,0.04,0.2,0.09,0.29,0.14
							c0.87,0.44,1.71,0.93,2.5,1.47C2418.84,1217.5,2421.59,1221.15,2422.66,1225.55z"/>
						<path class="st23" d="M2440.75,1128.25l8.89,36.65c6.25,25.75-4.86,51.82-25.73,65.81l2.35,9.67
							c-5.84,3.91-12.44,6.88-19.63,8.62l-4.91,1.19c-7.2,1.75-14.42,2.14-21.4,1.33l-2.35-9.67
							c-24.96-2.86-46.78-20.95-53.03-46.69l-8.89-36.65c-4.1-17.22-0.44-34.56,8.69-48.3c8.29-12.51,21.1-22.05,36.74-25.84
							l4.91-1.19c14.05-3.41,28.19-1.65,40.41,4.03c0,0,0,0,0.01,0C2423.17,1094.83,2436.11,1109.48,2440.75,1128.25z"/>
						<path class="st22" d="M2438.46,1118.89l11.17,46.04c2.8,11.52,2.15,23.12-1.34,33.65c-0.54,1.66-1.2,3.28-1.87,4.85
							c-0.82,1.96-1.71,3.82-2.74,5.65c-4.72,8.6-11.48,16.04-19.74,21.63c-5.86,3.89-12.47,6.9-19.67,8.64l-4.88,1.18
							c-7.2,1.75-14.45,2.1-21.39,1.32c-24.98-2.86-46.8-20.97-53.04-46.68l-11.59-47.76c-3.72-17.52,0.51-35.15,10.34-48.8
							c1.58-2.2,3.25-4.25,5.08-6.16c7.91-8.49,18.29-14.82,30.36-17.75l4.88-1.18c9.36-2.27,18.81-2.28,27.7-0.21
							c1.79,0.39,3.53,0.79,5.26,1.36c2.1,0.66,4.15,1.4,6.19,2.31C2420.25,1084.47,2433.75,1099.5,2438.46,1118.89z"/>
						<g>
							<path class="st24" d="M2468.35,1137.29c3.22,13.25-4.93,26.6-18.17,29.81l-11.64-47.98c3.32-0.81,6.66-0.9,9.84-0.37
								c0.03,0,0.04,0.01,0.04,0.01C2457.87,1120.33,2465.95,1127.38,2468.35,1137.29z"/>
							<path class="st23" d="M2459.21,1139.51c1.99,8.2-3.05,16.47-11.25,18.46l-7.21-29.71
								C2448.95,1126.27,2457.22,1131.3,2459.21,1139.51z"/>
						</g>
						<g>
							<path class="st24" d="M2313.84,1149.38l11.64,47.98c-13.24,3.21-26.59-4.92-29.8-18.17c-2.77-11.4,2.87-22.87,12.92-27.9
								c0.35-0.18,0.7-0.35,1.07-0.49c0.19-0.08,0.38-0.15,0.58-0.23C2311.4,1150.09,2312.59,1149.68,2313.84,1149.38z"/>
							<path class="st23" d="M2304.81,1176.97c1.99,8.2,10.26,13.24,18.46,11.25l-7.21-29.71
								C2307.85,1160.5,2302.82,1168.77,2304.81,1176.97z"/>
						</g>
						<path class="st25" d="M2438.46,1118.89l11.17,46.04c2.8,11.52,2.15,23.12-1.34,33.65c-0.54,1.66-1.2,3.28-1.87,4.85
							c-9.15-89.71-26.78-98.75-47.35-93.58c-22.14,5.49-33.79-20.55-33.79-20.55l31.71-14.62c2.1,0.66,4.15,1.4,6.19,2.31
							C2420.25,1084.47,2433.75,1099.5,2438.46,1118.89z"/>
						<path class="st26" d="M2432.91,1267.68l8.25,8.56l-15.63,30.38c-1.17,0.38-2.35,0.72-3.59,1.02
							c-0.18,0.09-0.37,0.14-0.56,0.19l-0.05,0.01c-0.23,0.11-0.47,0.16-0.76,0.19l7.34-46.62l0.02-0.11l1.22-7.68l0.04-0.06
							l0.11-0.79l-3.01-12.41l17.98,18.48l-10.76,8.37L2432.91,1267.68z"/>
						<path class="st3" d="M2416.43,1309.13l0.67-0.16c0.95-0.23,1.91-0.46,2.79-0.78c0.25-0.01,0.49-0.07,0.67-0.16
							c0.3-0.02,0.54-0.08,0.76-0.19l0.05-0.01l1.8-5.49l9.51-29.55l-1.86-7.69l4.24-6.69l-5.29-9.74c0,0-0.23,0.92-0.85,2.53
							l-0.07,0.12l0.02,0.1c-1.63,4.54-5.68,13.86-13.1,20.37c-1.64,1.36-3.34,2.68-5.36,3.73c-3.11-0.1-6.08-0.7-8.83-1.6
							c-8.6-2.72-15.44-8.44-18.55-11.47l-0.07-0.08c-1.29-1.15-1.92-1.86-1.92-1.86l-0.24,11.08l6.83,4l1.86,7.69l18.93,18.86
							l7.15,7.16l0.06,0.04L2416.43,1309.13z"/>
						<path class="st21" d="M2433.51,1267.23l7.65,9.01l-19.22,31.4c-0.18,0.09-0.37,0.14-0.56,0.19l-0.05,0.01
							c-0.23,0.11-0.47,0.16-0.76,0.19c-0.18,0.09-0.42,0.15-0.67,0.16l7.09-44.74l-0.01-0.05l1.89-11.98l-0.02-0.1l0.07-0.12
							l-3.01-12.41l18.36,20.06l-11.74,7.25L2433.51,1267.23z"/>
						<path class="st26" d="M2415.13,1309.4c-0.91,0.22-1.77,0.43-2.65,0.54l-0.05,0.01l-28.9-19.73l3.4-11.39l-0.74-0.12
							l-13.4-2.51l7.51-24.67l2.63,10.84l0.38,1.58l0.07,0.08l0.24,0.35l0.07,0.08l4.76,6.48l0.01,0.05l27.96,38.15l-0.81,0.2
							l-0.24,0.06L2415.13,1309.4z"/>
						<polygon class="st21" points="2415.13,1309.4 2383.53,1290.22 2386.2,1278.71 2386.55,1277.25 2372.8,1276.19 
							2379.93,1249.95 2380.31,1251.52 2382.94,1262.36 2383.01,1262.44 2390.26,1272.31 2390.27,1272.36 2417.1,1308.97 
							2416.43,1309.13 2415.62,1309.33 2415.38,1309.39 						"/>
						<path class="st21" d="M2399.15,1064.99c0,0-32.15-1.77-37.95-0.37s-13.11,3.91-23.93,9.47
							c-10.83,5.56-25.11,22.24-25.11,22.24l-1.75,6.97c-1.35,2.31-2.69,4.9-2.64,5.54c0.05,0.6,0.1,2.57,0.14,4.37l-1.45,5.75
							c0.34-0.23,1.17-0.72,2.16-1.4l2.73,4.52c0.17-0.11,3.78-10.11,12.86-18.23c11.95-7.86,29.27-13.32,43.97-7.2
							c26.7,11.12,66.59-8.82,66.59-8.82L2399.15,1064.99z"/>
					</g>
				</g>
				<path class="st27" d="M2942.39,929.65l-359.73,87.28c-9.28,2.25-18.72-3.5-20.97-12.78l-0.21-0.85
					c-2.25-9.28,3.5-18.72,12.78-20.97l359.73-87.28c9.28-2.25,18.72,3.5,20.97,12.78l0.21,0.85
					C2957.42,917.96,2951.67,927.4,2942.39,929.65z"/>
				<path class="st20" d="M2960.7,1005.12l-359.73,87.28c-9.28,2.25-18.72-3.5-20.97-12.78l-0.21-0.85
					c-2.25-9.28,3.5-18.72,12.78-20.97l359.73-87.28c9.28-2.25,18.72,3.5,20.97,12.78l0.21,0.85
					C2975.73,993.43,2969.98,1002.87,2960.7,1005.12z"/>
				<path class="st20" d="M2979.01,1080.6l-359.73,87.28c-9.28,2.25-18.72-3.5-20.97-12.78l-0.21-0.85
					c-2.25-9.28,3.5-18.72,12.78-20.97l359.73-87.28c9.28-2.25,18.72,3.5,20.97,12.78l0.21,0.85
					C2994.05,1068.91,2988.29,1078.34,2979.01,1080.6z"/>
				<path class="st20" d="M2997.32,1156.07l-359.73,87.28c-9.28,2.25-18.72-3.5-20.97-12.78l-0.21-0.85
					c-2.25-9.28,3.5-18.72,12.78-20.97l359.73-87.28c9.28-2.25,18.72,3.5,20.97,12.78l0.21,0.85
					C3012.36,1144.38,3006.61,1153.82,2997.32,1156.07z"/>
			</g>
			<path class="st10" d="M2418.05,2260.73c-5.96,0-11.93-0.13-17.89-0.37c-6.93-0.28-12.32-6.13-12.04-13.05
				c0.28-6.93,6.23-12.29,13.05-12.04c21.51,0.88,43.17,0.07,64.9-2.42c6.86-0.81,13.12,4.16,13.9,11.04
				c0.79,6.89-4.16,13.12-11.04,13.9C2451.95,2259.75,2434.82,2260.73,2418.05,2260.73z M2334.3,2252.09
				c-0.86,0-1.73-0.09-2.61-0.27c-22.4-4.73-44.61-11.42-66.02-19.87c-6.45-2.56-9.61-9.85-7.06-16.3c2.56-6.45,9.85-9.59,16.3-7.06
				c20.08,7.95,40.94,14.22,61.96,18.66c6.78,1.44,11.12,8.1,9.7,14.88C2345.32,2248.04,2340.11,2252.09,2334.3,2252.09z
				 M2533.24,2245.5c-5.58,0-10.66-3.73-12.14-9.37c-1.76-6.71,2.26-13.57,8.96-15.33c20.67-5.41,41.51-12.37,61.94-20.68
				c6.44-2.61,13.75,0.49,16.36,6.9c2.61,6.43-0.48,13.75-6.9,16.36c-21.44,8.72-43.32,16.03-65.03,21.71
				C2535.36,2245.36,2534.29,2245.5,2533.24,2245.5z M2210.3,2203.28c-2.18,0-4.39-0.57-6.4-1.77
				c-19.23-11.44-38.18-24.7-56.32-39.37c-5.39-4.36-6.22-12.27-1.86-17.66c4.37-5.4,12.27-6.23,17.66-1.86
				c17.2,13.93,35.16,26.48,53.35,37.32c5.96,3.54,7.92,11.25,4.37,17.21C2218.75,2201.09,2214.58,2203.28,2210.3,2203.28z
				 M2657.11,2195.36c-4.42,0-8.7-2.33-11-6.47c-3.36-6.07-1.17-13.71,4.89-17.07c18.94-10.5,37.57-22.28,55.37-35.01
				c5.63-4.03,13.47-2.73,17.52,2.91c4.03,5.64,2.73,13.49-2.91,17.52c-18.58,13.28-38.03,25.57-57.79,36.53
				C2661.26,2194.86,2659.17,2195.36,2657.11,2195.36z M2106.26,2119.56c-3.3,0-6.6-1.29-9.06-3.86
				c-15.4-16.05-30.37-33.51-44.51-51.9c-4.22-5.5-3.19-13.39,2.31-17.61c5.5-4.23,13.37-3.2,17.61,2.3
				c13.58,17.66,27.94,34.43,42.72,49.81c4.8,5,4.64,12.95-0.36,17.76C2112.52,2118.39,2109.38,2119.56,2106.26,2119.56z
				 M2765.86,2117.69c-3.43,0-6.85-1.4-9.33-4.15c-4.65-5.15-4.23-13.09,0.91-17.73c16.35-14.74,31.83-30.41,46.03-46.59
				c4.58-5.2,12.51-5.73,17.72-1.16c5.21,4.58,5.73,12.51,1.16,17.72c-14.84,16.91-31.01,33.28-48.08,48.67
				C2771.85,2116.61,2768.85,2117.69,2765.86,2117.69z M2809.01,2043.08c-6.38,0-11.85-4.85-12.48-11.34
				c-0.68-6.9,4.37-13.04,11.27-13.71c12.02-1.18,24.11-3.1,36.15-5.75c-3.27-4.17-3.66-10.14-0.54-14.77
				c12.44-18.46,23.35-37.44,32.43-56.42c2.99-6.26,10.49-8.92,16.74-5.9c6.25,2.99,8.9,10.49,5.9,16.74
				c-8.7,18.19-18.98,36.36-30.59,54.1c0.95-0.29,1.9-0.58,2.85-0.88c6.66-2.04,13.67,1.64,15.74,8.24
				c2.06,6.62-1.62,13.67-8.24,15.74c-22.45,7.01-45.34,11.69-68.02,13.91C2809.83,2043.06,2809.41,2043.08,2809.01,2043.08z
				 M2742.23,2042.12c-0.54,0-1.07-0.04-1.61-0.11c-21.98-2.83-44.71-8.14-67.53-15.78c-6.58-2.21-10.12-9.32-7.92-15.89
				c2.21-6.58,9.3-10.13,15.89-7.92c21.28,7.13,42.4,12.07,62.76,14.69c6.88,0.89,11.74,7.18,10.85,14.05
				C2753.85,2037.5,2748.46,2042.12,2742.23,2042.12z M2024.5,2013.61c-4.19,0-8.29-2.1-10.67-5.91
				c-12.17-19.52-23.4-39.56-33.35-59.57c-3.08-6.21-0.56-13.74,5.65-16.83c6.2-3.09,13.74-0.55,16.83,5.65
				c9.6,19.29,20.41,38.62,32.16,57.46c3.67,5.88,1.88,13.63-4.01,17.3C2029.06,2013,2026.76,2013.61,2024.5,2013.61z
				 M2936.18,2003.8c-4.5,0-8.85-2.42-11.1-6.66c-3.26-6.13-0.93-13.73,5.19-16.98c18.76-9.97,37.05-21.8,54.4-35.17
				c5.5-4.22,13.39-3.21,17.61,2.28c4.23,5.5,3.21,13.38-2.28,17.61c-18.46,14.22-37.95,26.82-57.94,37.45
				C2940.19,2003.33,2938.17,2003.8,2936.18,2003.8z M2615.68,2000.23c-2.02,0-4.07-0.49-5.97-1.52
				c-20.84-11.29-40.22-24.26-57.59-38.52c-5.36-4.4-6.14-12.32-1.73-17.67c4.41-5.37,12.32-6.14,17.67-1.73
				c16.14,13.25,34.18,25.32,53.62,35.85c6.1,3.31,8.36,10.92,5.05,17.02C2624.46,1997.85,2620.14,2000.23,2615.68,2000.23z
				 M3041.96,1922.64c-3.11,0-6.22-1.15-8.65-3.46c-5.03-4.78-5.23-12.72-0.46-17.75c14.75-15.54,28.63-32.48,41.24-50.35
				c4-5.65,11.82-7.02,17.5-3.02c5.67,4,7.02,11.83,3.02,17.5c-13.31,18.86-27.96,36.75-43.55,53.16
				C3048.6,1921.33,3045.28,1922.64,3041.96,1922.64z M2513.55,1915.09c-3.79,0-7.54-1.71-10.01-4.96
				c-14.64-19.28-26.17-39.93-34.28-61.39c-2.46-6.49,0.82-13.74,7.3-16.19c6.48-2.44,13.73,0.81,16.19,7.3
				c7.25,19.19,17.61,37.73,30.79,55.07c4.19,5.53,3.11,13.4-2.41,17.6C2518.87,1914.26,2516.2,1915.09,2513.55,1915.09z
				 M2910.76,1896.5c-1.1,0-2.22-0.14-3.33-0.45c-6.69-1.83-10.62-8.75-8.79-15.43c5.88-21.43,9.35-42.69,10.3-63.2
				c0.32-6.92,5.96-12.23,13.13-11.96c6.93,0.32,12.28,6.2,11.96,13.13c-1.04,22.36-4.8,45.46-11.17,68.67
				C2921.33,1892.83,2916.27,1896.5,2910.76,1896.5z M3119.05,1813.68c-1.94,0-3.91-0.45-5.75-1.41
				c-6.16-3.18-8.57-10.75-5.39-16.91c9.88-19.13,18.65-39.27,26.06-59.84c2.36-6.53,9.55-9.91,16.07-7.56
				c6.53,2.36,9.91,9.55,7.56,16.07c-7.78,21.6-17,42.74-27.39,62.85C3127.99,1811.2,3123.6,1813.68,3119.05,1813.68z
				 M2467.45,1791.62c-6.66,0-12.21-5.23-12.54-11.95c-0.19-3.87-0.29-7.75-0.29-11.62c0-19.16,2.31-38.77,6.88-58.29
				c1.58-6.77,8.39-10.96,15.08-9.37c6.75,1.58,10.95,8.33,9.37,15.08c-4.12,17.64-6.21,35.33-6.21,52.58
				c0,3.47,0.09,6.93,0.26,10.4c0.34,6.93-5,12.81-11.94,13.15C2467.86,1791.62,2467.65,1791.62,2467.45,1791.62z M2916.16,1763.97
				c-5.86,0-11.1-4.13-12.3-10.1c-4.1-20.49-10.42-41.25-18.8-61.71c-2.63-6.42,0.45-13.75,6.87-16.38
				c6.41-2.61,13.75,0.45,16.38,6.87c8.97,21.94,15.77,44.24,20.18,66.3c1.36,6.8-3.06,13.42-9.85,14.78
				C2917.81,1763.89,2916.98,1763.97,2916.16,1763.97z M2496.78,1662.46c-1.92,0-3.86-0.44-5.68-1.36
				c-6.18-3.15-8.65-10.7-5.5-16.89c10.61-20.85,23.57-40.42,38.53-58.14c4.47-5.3,12.39-5.97,17.7-1.49
				c5.3,4.48,5.96,12.4,1.49,17.7c-13.72,16.24-25.6,34.18-35.33,53.31C2505.76,1659.96,2501.35,1662.46,2496.78,1662.46z
				 M2865.92,1640.54c-4.14,0-8.2-2.04-10.59-5.79c-12.02-18.78-25.44-35.73-39.86-50.35c-4.87-4.94-4.81-12.89,0.12-17.76
				c4.94-4.87,12.89-4.82,17.76,0.12c15.66,15.87,30.16,34.19,43.13,54.45c3.74,5.84,2.03,13.61-3.81,17.34
				C2870.58,1639.89,2868.24,1640.54,2865.92,1640.54z M2582.79,1561.4c-3.95,0-7.82-1.86-10.27-5.32c-4-5.67-2.64-13.5,3.02-17.5
				c20.28-14.3,41.6-24.85,63.39-31.35c6.64-1.96,13.64,1.79,15.62,8.44c1.98,6.65-1.79,13.64-8.44,15.62
				c-19.18,5.73-38.05,15.08-56.1,27.81C2587.82,1560.65,2585.29,1561.4,2582.79,1561.4z M2771.65,1547.23
				c-2.08,0-4.18-0.51-6.12-1.61c-19.03-10.65-38.67-17.3-58.41-19.76c-6.88-0.86-11.77-7.13-10.91-14.01
				c0.86-6.88,7.07-11.77,14.01-10.91c22.97,2.86,45.71,10.52,67.58,22.77c6.05,3.38,8.21,11.04,4.82,17.08
				C2780.32,1544.92,2776.05,1547.23,2771.65,1547.23z"/>
			<g>
				
					<ellipse transform="matrix(0.7071 -0.7071 0.7071 0.7071 -191.0996 2712.2935)" class="st8" cx="3178.48" cy="1586.82" rx="244.66" ry="244.66"/>
				<g>
					<circle class="st7" cx="3230.48" cy="1557.6" r="244.66"/>
					<g>
						<path class="st3" d="M3274.07,1486.71l5.79-19.21l46.44,3.3l-35.71,124.22c-2.21,7.86-3.41,13.08-3.59,15.66
							c-0.19,2.69,0.33,4.85,1.58,6.47c1.23,1.62,2.79,2.5,4.67,2.63c6.34,0.45,14.81-3.1,25.42-10.66
							c10.62-7.55,20.15-18.19,28.62-31.91c8.46-13.72,13.29-29.02,14.49-45.91c1-14.07-0.72-27.52-5.17-40.32
							c-4.45-12.81-11.39-24.15-20.83-34.01c-9.43-9.87-21.39-17.91-35.85-24.12c-14.47-6.22-31.09-9.99-49.85-11.33
							c-19.12-1.36-36.83-0.12-53.13,3.73c-16.3,3.85-30.83,10.01-43.57,18.47c-12.74,8.46-23.65,19.27-32.71,32.41
							c-8,11.45-14.4,24.32-19.19,38.59c-4.79,14.28-7.72,28.98-8.8,44.1c-1.44,20.17,1.27,38.9,8.11,56.18
							c6.84,17.28,17.51,32.13,32.02,44.53c14.5,12.41,32.42,21.75,53.78,28.05c21.36,6.29,45.8,9,73.33,8.14
							c21.88-1.04,40.61-4.65,56.2-10.85c15.58-6.2,29.07-15.5,40.44-27.89l37.47,2.67c-6.99,12.11-15.73,22.75-26.22,31.9
							c-10.5,9.16-22.55,16.63-36.16,22.45c-13.62,5.81-28.7,9.89-45.25,12.25s-34.44,2.85-53.68,1.48
							c-28.85-2.05-54.55-7.68-77.12-16.89c-22.57-9.21-41.23-21.5-55.99-36.87c-14.76-15.37-25.48-33.23-32.16-53.56
							c-6.69-20.34-9.18-42.46-7.48-66.39c1.78-24.98,7.6-48.02,17.47-69.13c9.87-21.1,23.21-39.1,40-53.99
							c16.79-14.89,36.8-26.05,60.02-33.48c23.22-7.42,48.43-10.17,75.64-8.23c22.28,1.59,42.49,6.3,60.61,14.12
							c18.12,7.83,33.38,18.32,45.76,31.46c12.39,13.14,21.47,28.31,27.26,45.52c5.79,17.2,7.97,35.9,6.53,56.07
							c-1.12,15.71-5.03,30.9-11.73,45.58c-6.7,14.67-15.73,27.64-27.08,38.91c-11.35,11.28-24.37,19.89-39.06,25.86
							c-14.69,5.97-30.24,8.37-46.65,7.2c-9.5-0.68-16.77-2.81-21.82-6.42c-5.05-3.6-8.2-8.98-9.46-16.14
							c-10.92,9.36-23.1,14.89-36.54,16.58c-13.44,1.7-26.2-0.45-38.26-6.44c-12.07-5.98-21.51-15.29-28.33-27.92
							c-6.82-12.62-9.61-27.79-8.35-45.5c1.31-18.41,6.56-36.25,15.74-53.51c9.19-17.26,21.48-31.06,36.9-41.4
							c15.41-10.33,32.32-14.85,50.73-13.54C3250.43,1461.15,3265.35,1470.17,3274.07,1486.71z M3171.36,1570.98
							c-1,14.07,1.16,25.07,6.49,32.99c5.33,7.92,12.75,12.22,22.25,12.9c11.02,0.78,21.04-2.93,30.05-11.12
							c9.01-8.2,16.16-18.86,21.46-31.98c5.29-13.12,8.39-25.95,9.28-38.5c0.44-6.21,0.11-11.87-1-16.95
							c-1.11-5.09-2.97-9.61-5.57-13.57c-2.61-3.95-5.87-7.04-9.77-9.27c-3.91-2.22-8.44-3.52-13.6-3.89
							c-10.32-0.73-19.9,2.62-28.74,10.07c-8.84,7.44-15.95,17.42-21.31,29.95C3175.51,1544.14,3172.34,1557.26,3171.36,1570.98z"/>
					</g>
				</g>
			</g>
		</g>
		<path class="st28" d="M2511.37,201.24l26.44-13.9c5.99-3.15,12.99,1.94,11.85,8.61l-5.05,29.44c-0.45,2.65,0.42,5.35,2.35,7.23
			l21.39,20.85c4.85,4.72,2.17,12.96-4.53,13.93l-29.56,4.3c-2.66,0.39-4.96,2.06-6.15,4.47l-13.22,26.79
			c-3,6.07-11.65,6.07-14.65,0l-13.22-26.79c-1.19-2.41-3.49-4.08-6.15-4.47l-29.56-4.3c-6.7-0.97-9.37-9.2-4.53-13.93l21.39-20.85
			c1.92-1.88,2.8-4.58,2.35-7.23l-5.05-29.44c-1.14-6.67,5.86-11.76,11.85-8.61l26.44,13.9
			C2506.15,202.49,2508.99,202.49,2511.37,201.24z"/>
		<g>
			<path class="st28" d="M360.6,2327.92c-38.76,0-70.29-31.53-70.29-70.29c0-38.76,31.53-70.3,70.29-70.3s70.3,31.54,70.3,70.3
				C430.9,2296.39,399.36,2327.92,360.6,2327.92z M360.6,2206.67c-28.1,0-50.95,22.86-50.95,50.96c0,28.1,22.86,50.95,50.95,50.95
				c28.1,0,50.96-22.86,50.96-50.95C411.56,2229.53,388.69,2206.67,360.6,2206.67z"/>
			
				<ellipse transform="matrix(0.7071 -0.7071 0.7071 0.7071 -1490.7648 916.2263)" class="st28" cx="360.6" cy="2257.63" rx="35.8" ry="35.8"/>
		</g>
		<circle class="st28" cx="1813.98" cy="2645.28" r="32.31"/>
		<circle class="st28" cx="1277.65" cy="78.78" r="32.31"/>
	</g>
</g>
</svg>
